<svg xmlns="http://www.w3.org/2000/svg" width="1043.347" height="236.701" viewBox="0 0 1043.347 236.701"><defs><style>.a{fill:#00acee;}</style></defs><g transform="translate(-13.873 -33.478)"><path class="a" d="M346.044,75.64H272.075V33.478h201.2V75.64H399.3V270.179H346.784V75.64Z"/><path class="a" d="M541.827,256.4a89.686,89.686,0,0,1-38.958-41.123,146.9,146.9,0,0,1-14.429-63.487c0-23.807,4.328-44.729,13.707-62.765S524.512,57.285,541.1,47.907c17.315-9.379,36.794-14.429,59.88-14.429s42.565,5.05,59.88,14.429,29.579,23.086,38.958,41.122,13.707,38.958,13.707,62.765-4.329,44.73-13.707,62.766-22.365,31.743-38.958,41.122-36.794,14.429-59.88,14.429C578.62,270.832,558.42,265.782,541.827,256.4Zm105.33-46.173c10.822-13.707,16.593-33.186,16.593-58.437s-5.771-44.729-16.593-58.437-25.972-20.2-45.451-20.2-34.629,6.493-45.451,20.2-16.593,33.187-16.593,58.437c0,25.972,5.772,45.451,16.593,59.159s25.972,20.2,45.451,20.2S636.336,223.939,647.157,210.231Z"/><path class="a" d="M980.822,34.687V269.445H935.337V141.795L881.049,270.179H848.036L793.015,143.263V270.179H747.53V34.687h41.083l75.563,173.134L939.739,34.687Z"/><path class="a" d="M163.166,158.926l-14.355-25.839L72.729,269.461H13.873L148.811,34.037,221.3,158.926Z"/><path class="a" d="M176.086,182.613h58.138l50.243,87.566H224.893Z"/><path d="M1004.96,40.355h-9.952V34.687h26.956v5.668h-9.952V66.463h-7.052Z"/><path d="M1057.22,34.687V66.463h-6.158V49.1l-7.32,17.361h-4.507l-7.364-17.138V66.463h-6.114V34.687h5.534l10.265,23.43,10.175-23.43Z"/></g></svg>