<?xml version="1.0" encoding="UTF-8"?>
<svg version="1.1" xmlns="http://www.w3.org/2000/svg" width="400" height="338">
<path d="M0 0 C132 0 264 0 400 0 C400 111.54 400 223.08 400 338 C268 338 136 338 0 338 C0 226.46 0 114.92 0 0 Z " fill="#FCFCFC" transform="translate(0,0)"/>
<path d="M0 0 C68.85346639 0 68.85346639 0 84.8203125 15.57421875 C98.32021818 30.59830733 100.1485967 47.57369023 99.54296875 67.01953125 C98.63774261 82.44151888 92.4695267 95.08179086 81.25 105.8125 C58.4750602 124.4628444 27.62090423 117 0 117 C0 78.39 0 39.78 0 0 Z " fill="#07080A" transform="translate(287,23)"/>
<path d="M0 0 C12.87 0 25.74 0 39 0 C44.62955255 13.51092612 44.62955255 13.51092612 46.38671875 18.61328125 C46.76763672 19.71607422 47.14855469 20.81886719 47.54101562 21.95507812 C48.10852539 23.61700195 48.10852539 23.61700195 48.6875 25.3125 C49.07744141 26.43978516 49.46738281 27.56707031 49.86914062 28.72851562 C51.72302908 34.11905281 53.51474447 39.49581775 55 45 C58.5006791 35.46704041 61.87560289 25.89064603 65.25 16.3125 C67.1475 10.929375 69.045 5.54625 71 0 C84.2 0 97.4 0 111 0 C111 35.31 111 70.62 111 107 C101.1 107 91.2 107 81 107 C80.67 89.18 80.34 71.36 80 53 C78.71222656 56.73054688 77.42445313 60.46109375 76.09765625 64.3046875 C74.8536013 67.90555029 73.60907484 71.50624979 72.36450195 75.10693359 C71.4977969 77.61522645 70.63158445 80.12368958 69.76586914 82.63232422 C68.52358473 86.23189128 67.27954744 89.83084831 66.03515625 93.4296875 C65.64658951 94.55680145 65.25802277 95.68391541 64.85768127 96.84518433 C64.31723427 98.40657639 64.31723427 98.40657639 63.76586914 99.99951172 C63.28954796 101.37851151 63.28954796 101.37851151 62.80360413 102.78536987 C62 105 62 105 61 107 C57.04 107 53.08 107 49 107 C47.56021321 102.82770833 46.12192587 98.65490316 44.68481445 94.48168945 C44.19951309 93.07303131 43.71385651 91.66449548 43.2277832 90.25610352 C39.06660138 78.19778831 35.03422812 66.10268437 31 54 C30.67 71.49 30.34 88.98 30 107 C20.1 107 10.2 107 0 107 C0 71.69 0 36.38 0 0 Z " fill="#07080A" transform="translate(185,175)"/>
<path d="M0 0 C11.22 0 22.44 0 34 0 C42.99698635 14.62010282 42.99698635 14.62010282 46.39453125 20.4375 C46.75342941 21.05093262 47.11232758 21.66436523 47.48210144 22.29638672 C48.59361758 24.19678685 49.70315346 26.09833274 50.8125 28 C51.94013386 29.92997476 53.06818792 31.85970312 54.19645691 33.78930664 C55.20696683 35.51797191 56.21643297 37.24724721 57.22583008 38.9765625 C58.80089129 41.66069048 60.39882169 44.33136948 62 47 C62.33 31.49 62.66 15.98 63 0 C74.22 0 85.44 0 97 0 C97 38.94 97 77.88 97 118 C65 118 65 118 58.61328125 112.4296875 C57.33892055 109.87907816 56.30891507 107.5166236 55.3125 104.875 C54.69883295 103.55019957 54.07171439 102.23155429 53.43188477 100.91918945 C52.15222316 98.26433458 50.93878843 95.59295264 49.76855469 92.88818359 C47.17520462 87.01859334 43.79008485 81.65020124 40.4375 76.1875 C38.643125 73.155625 36.84875 70.12375 35 67 C34.67 83.83 34.34 100.66 34 118 C22.78 118 11.56 118 0 118 C0 79.06 0 40.12 0 0 Z " fill="#090A0C" transform="translate(171,23)"/>
<path d="M0 0 C10.23 0 20.46 0 31 0 C31 12.54 31 25.08 31 38 C39.91 38 48.82 38 58 38 C58 25.46 58 12.92 58 0 C68.23 0 78.46 0 89 0 C89 35.31 89 70.62 89 107 C78.77 107 68.54 107 58 107 C58 93.14 58 79.28 58 65 C49.09 65 40.18 65 31 65 C31 78.86 31 92.72 31 107 C20.77 107 10.54 107 0 107 C0 71.69 0 36.38 0 0 Z " fill="#0A0B0D" transform="translate(0,175)"/>
<path d="M0 0 C8.848125 -0.0825 17.69625 -0.165 26.8125 -0.25 C30.96936401 -0.30462402 30.96936401 -0.30462402 35.21020508 -0.36035156 C37.43830595 -0.37204804 39.66641546 -0.38223759 41.89453125 -0.390625 C43.59144104 -0.4213208 43.59144104 -0.4213208 45.32263184 -0.45263672 C56.00948863 -0.45726858 65.90666883 2.10799034 73.7734375 9.71484375 C81.61858678 18.07307241 84.28484395 26.70938953 84.1484375 37.9765625 C83.71576444 46.78942954 80.32753015 55.05950377 74.625 61.8125 C64.49244021 70.25629982 56.73030943 72.46880174 43.5 72.1875 C39.375 72.125625 35.25 72.06375 31 72 C31 83.55 31 95.1 31 107 C20.77 107 10.54 107 0 107 C0 71.69 0 36.38 0 0 Z " fill="#090A0C" transform="translate(311,175)"/>
<path d="M0 0 C22.44 0 44.88 0 68 0 C68 8.91 68 17.82 68 27 C55.79 27 43.58 27 31 27 C31 30.96 31 34.92 31 39 C42.88 39 54.76 39 67 39 C67 47.91 67 56.82 67 66 C54.79 66 42.58 66 30 66 C30 70.62 30 75.24 30 80 C42.54 80 55.08 80 68 80 C68 88.91 68 97.82 68 107 C45.56 107 23.12 107 0 107 C0 71.69 0 36.38 0 0 Z " fill="#0A0B0D" transform="translate(104,175)"/>
<path d="M0 0 C17.49 0 34.98 0 53 0 C51.67991883 2.64016234 49.84833002 4.69930782 48 7 C46.80515144 8.65321006 45.62583935 10.31774124 44.4609375 11.9921875 C43.80287109 12.93698975 43.14480469 13.88179199 42.46679688 14.85522461 C39.62212432 18.961872 36.77928606 23.06973846 33.94433594 27.18310547 C32.3064964 29.55595737 30.65885916 31.92149803 29.0078125 34.28515625 C13.99533823 55.9990723 2.57263993 81.28728106 7.40283203 108.24853516 C9.52860555 116.32401934 14.15313933 123.15313933 20 129 C24.65194714 129.34216235 24.65194714 129.34216235 29 128 C29.474375 126.845 29.94875 125.69 30.4375 124.5 C30.953125 123.345 31.46875 122.19 32 121 C32.99 120.67 33.98 120.34 35 120 C34.45859375 119.29037109 34.45859375 119.29037109 33.90625 118.56640625 C30.18049471 113.25720497 29.33054683 109.42675047 30 103 C31.98 102.505 31.98 102.505 34 102 C33.505 101.360625 33.01 100.72125 32.5 100.0625 C30.49049723 95.95976517 30.73614328 92.48556418 31 88 C32.65 88.33 34.3 88.66 36 89 C35.83628906 88.43796875 35.67257813 87.8759375 35.50390625 87.296875 C34.97135003 84.86940944 34.90101319 82.73110319 34.9375 80.25 C34.94652344 79.45078125 34.95554688 78.6515625 34.96484375 77.828125 C34.97644531 77.22484375 34.98804688 76.6215625 35 76 C36.65 76 38.3 76 40 76 C40 72.7 40 69.4 40 66 C41.65 66 43.3 66 45 66 C44.67 65.34 44.34 64.68 44 64 C43.95977609 61.6670134 43.95679753 59.33293334 44 57 C44.99 56.67 45.98 56.34 47 56 C47 52.37 47 48.74 47 45 C47.66 45 48.32 45 49 45 C48.98839844 44.28972656 48.97679687 43.57945313 48.96484375 42.84765625 C48.95582031 41.92855469 48.94679687 41.00945313 48.9375 40.0625 C48.92589844 39.14597656 48.91429687 38.22945312 48.90234375 37.28515625 C49 35 49 35 50 34 C50.07319621 31.30345146 50.09242537 28.63308542 50.0625 25.9375 C50.05798828 25.17888672 50.05347656 24.42027344 50.04882812 23.63867188 C50.0370068 21.75908129 50.01907078 19.87953101 50 18 C58.37921031 26.32651088 58.37921031 26.32651088 59 33 C59.9590625 33.185625 59.9590625 33.185625 60.9375 33.375 C61.618125 33.58125 62.29875 33.7875 63 34 C64.4783226 36.95664519 64.06032783 39.74229737 64 43 C64.99 42.67 65.98 42.34 67 42 C69.67927341 46.01891012 69.15601248 48.24161923 69 53 C70.32 53.66 71.64 54.32 73 55 C72.67 57.97 72.34 60.94 72 64 C72.99 64 73.98 64 75 64 C75.02696365 65.79158489 75.04637917 67.58328473 75.0625 69.375 C75.07410156 70.37273437 75.08570312 71.37046875 75.09765625 72.3984375 C75 75 75 75 74 77 C75.32 77 76.64 77 78 77 C78.16682272 81.92127034 78.24828052 85.50343896 76 90 C77.485 90.495 77.485 90.495 79 91 C78.61471495 97.16456078 76.52913975 100.98627748 73 106 C74.65 106 76.3 106 78 106 C77.41854143 109.91608844 76.2458542 112.69096793 74.1875 116.0625 C73.68605469 116.89910156 73.18460937 117.73570313 72.66796875 118.59765625 C70.98146821 121.02669099 69.15142231 122.97924976 67 125 C68.485 125.99 68.485 125.99 70 127 C61.07975128 136.98358963 49.60406082 143.40985949 36.05859375 144.2421875 C32.69475591 144.24897627 29.35849982 144.18126836 26 144 C28.34259302 141.65740698 30.48259321 140.80233219 33.5 139.4375 C47.7186346 132.39637759 54.36110108 121.85261854 59.921875 107.46875 C62.55790706 98.98760337 63.35808754 90.92444058 63.3125 82.0625 C63.30976074 80.97727051 63.30702148 79.89204102 63.30419922 78.77392578 C63.14795318 66.54542822 61.53422662 54.70904644 58 43 C58.13929932 43.73250977 58.27859863 44.46501953 58.42211914 45.21972656 C59.94551523 53.9939476 60.40400263 62.53680245 60.42553711 71.42773438 C60.4374184 73.73415979 60.48677908 76.03788582 60.53710938 78.34375 C60.74420985 97.43269637 54.75084233 116.97457402 41.265625 130.94140625 C33.45395696 138.03924945 25.71475108 140.47200914 15.19921875 140.328125 C10.75621551 139.87243236 7.71049769 138.35887788 4 136 C2.68 135.34 1.36 134.68 0 134 C0 89.78 0 45.56 0 0 Z " fill="#FAFAFA" transform="translate(0,0)"/>
<path d="M0 0 C3.40979036 3.26128225 6.2245621 6.51653314 8.85546875 10.4296875 C9.90553101 11.98248413 9.90553101 11.98248413 10.97680664 13.56665039 C12.07109985 15.20428345 12.07109985 15.20428345 13.1875 16.875 C13.95074301 18.01121983 14.71433586 19.14720472 15.47827148 20.28295898 C16.97930975 22.51587423 18.47722784 24.75078244 19.97363281 26.98681641 C21.6487491 29.47769414 23.34155728 31.95320707 25.0546875 34.41796875 C36.74802765 51.32053943 47.16906555 71.35252758 47.1875 92.3125 C47.19974609 93.03373047 47.21199219 93.75496094 47.22460938 94.49804688 C47.26267932 108.6473778 41.17718173 120.52006377 32 131 C18.20847711 144.65406585 0.75422018 148.2717145 -17.91381836 148.24658203 C-29.47225641 148.08256882 -39.75403093 144.42522848 -48.125 136.125 C-48.74375 135.42375 -49.3625 134.7225 -50 134 C-49.505 133.01 -49.505 133.01 -49 132 C-47.9171875 132.928125 -47.9171875 132.928125 -46.8125 133.875 C-40.32201542 138.77892168 -33.88340428 138.709138 -26 138 C-16.82357361 136.03550642 -9.79803615 130.00310233 -4.21484375 122.6484375 C-0.13127001 116.23586901 2.62642382 109.19958489 5 102 C5.26329102 101.25927246 5.52658203 100.51854492 5.79785156 99.75537109 C8.57196332 91.08915128 8.46131943 82.49067924 8.375 73.5 C8.37234131 72.70573608 8.36968262 71.91147217 8.36694336 71.09313965 C8.32004959 59.18272453 7.64563891 47.6534095 5 36 C5.99 36.495 5.99 36.495 7 37 C7.77271686 39.56867989 8.42085605 42.07404263 9 44.6875 C9.17370117 45.46351562 9.34740234 46.23953125 9.52636719 47.0390625 C10.03339236 49.35634828 10.52065972 51.67684544 11 54 C11.34804687 55.66482422 11.34804687 55.66482422 11.703125 57.36328125 C15.78223123 80.75986912 14.01392496 104.68643038 1 125 C-4.97420661 132.85435729 -13.62458685 138.87486228 -23 142 C-9.95427852 143.09321688 1.49141027 139.56687281 11.94921875 131.74609375 C14.0823147 129.92991491 16.05066615 128.01093808 18 126 C16.515 125.01 16.515 125.01 15 124 C15.67095703 123.32517578 15.67095703 123.32517578 16.35546875 122.63671875 C21.3868714 117.28347798 24.28847003 111.79756821 27 105 C25.35 105 23.7 105 22 105 C23.16377866 102.67244268 24.34017367 100.3604735 25.5625 98.0625 C26.86079514 95.29656688 27.55835579 93.00318063 28 90 C26.02 89.505 26.02 89.505 24 89 C24.4640625 88.01 24.4640625 88.01 24.9375 87 C26.24960255 83.29523985 26.60264135 79.90736009 27 76 C25.68 76 24.36 76 23 76 C23.33 71.71 23.66 67.42 24 63 C22.68 63.33 21.36 63.66 20 64 C20.495 59.05 20.495 59.05 21 54 C19.68 53.34 18.36 52.68 17 52 C17 49.36 17 46.72 17 44 C16.36191406 43.76410156 15.72382812 43.52820312 15.06640625 43.28515625 C13 42 13 42 12.27734375 39.87109375 C12.16519531 39.06800781 12.05304687 38.26492187 11.9375 37.4375 C11.65741114 35.04681229 11.65741114 35.04681229 11 33 C10.01 32.67 9.02 32.34 8 32 C7.29427304 29.95339181 6.9904128 27.94407466 6.625 25.8125 C6.41875 25.214375 6.2125 24.61625 6 24 C5.01 23.67 4.02 23.34 3 23 C2.01 21.35 1.02 19.7 0 18 C0 23.28 0 28.56 0 34 C-0.66 34 -1.32 34 -2 34 C-2 37.3 -2 40.6 -2 44 C-2.66 44 -3.32 44 -4 44 C-3.505 49.94 -3.505 49.94 -3 56 C-4.32 56 -5.64 56 -7 56 C-6.505 60.455 -6.505 60.455 -6 65 C-7.65 65 -9.3 65 -11 65 C-11 68.3 -11 71.6 -11 75 C-12.65 75 -14.3 75 -16 75 C-15.34 79.62 -14.68 84.24 -14 89 C-16.97 88.01 -16.97 88.01 -20 87 C-19.63495936 92.66442374 -18.9445679 97.00703705 -16 102 C-17.65 102 -19.3 102 -21 102 C-20.84077621 108.25315254 -19.67049478 112.29863283 -15.9609375 117.37109375 C-15.48527344 118.17740234 -15.48527344 118.17740234 -15 119 C-15.33 119.66 -15.66 120.32 -16 121 C-16.99 120.67 -17.98 120.34 -19 120 C-19.268125 121.11375 -19.53625 122.2275 -19.8125 123.375 C-21 127 -21 127 -24 129 C-27.1875 129.6875 -27.1875 129.6875 -31 129 C-38.83481531 122.94920336 -41.97218172 114.08345484 -45 105 C-46.18900066 90.88400356 -45.37893381 78.09777516 -40 65 C-39.56558594 63.83726563 -39.13117187 62.67453125 -38.68359375 61.4765625 C-32.90465221 46.82340588 -23.48179099 34.06425883 -14.53417969 21.21240234 C-11.60580313 16.98946339 -8.71160262 12.74306273 -5.8125 8.5 C-4.69405301 6.8645542 -3.57556722 5.22913494 -2.45703125 3.59375 C-1.63799447 2.39585136 -0.8189732 1.19794211 0 0 Z " fill="#0A0B0C" transform="translate(51,1)"/>
<path d="M0 0 C10.89 0 21.78 0 33 0 C33 38.61 33 77.22 33 117 C22.11 117 11.22 117 0 117 C0 78.39 0 39.78 0 0 Z " fill="#07080A" transform="translate(119,23)"/>
<path d="M0 0 C0.66 0.33 1.32 0.66 2 1 C2.77271686 3.56867989 3.42085605 6.07404263 4 8.6875 C4.17370117 9.46351562 4.34740234 10.23953125 4.52636719 11.0390625 C5.03339236 13.35634828 5.52065972 15.67684544 6 18 C6.34804687 19.66482422 6.34804687 19.66482422 6.703125 21.36328125 C10.78223123 44.75986912 9.01392496 68.68643038 -4 89 C-9.97420661 96.85435729 -18.62458685 102.87486228 -28 106 C-14.95427852 107.09321688 -3.50858973 103.56687281 6.94921875 95.74609375 C9.0823147 93.92991491 11.05066615 92.01093808 13 90 C11.515 89.01 11.515 89.01 10 88 C10.67095703 87.32517578 10.67095703 87.32517578 11.35546875 86.63671875 C16.3868714 81.28347798 19.28847003 75.79756821 22 69 C20.35 69 18.7 69 17 69 C18.16377866 66.67244268 19.34017367 64.3604735 20.5625 62.0625 C21.86079514 59.29656688 22.55835579 57.00318063 23 54 C21.02 53.505 21.02 53.505 19 53 C19.309375 52.34 19.61875 51.68 19.9375 51 C21.24960255 47.29523985 21.60264135 43.90736009 22 40 C20.68 40 19.36 40 18 40 C18.33 35.71 18.66 31.42 19 27 C17.68 27.33 16.36 27.66 15 28 C15.28284018 26.22773547 15.57660498 24.457212 15.875 22.6875 C16.03742188 21.70136719 16.19984375 20.71523438 16.3671875 19.69921875 C17.18079675 16.22882372 19.03273364 13.95089954 21 11 C21.66 11 22.32 11 23 11 C23 10.34 23 9.68 23 9 C24.32 9 25.64 9 27 9 C34.92482843 23.76351286 42.17252843 39.2898194 42.1875 56.3125 C42.19974609 57.03373047 42.21199219 57.75496094 42.22460938 58.49804688 C42.26267932 72.6473778 36.17718173 84.52006377 27 95 C13.20847711 108.65406585 -4.24577982 112.2717145 -22.91381836 112.24658203 C-34.47225641 112.08256882 -44.75403093 108.42522848 -53.125 100.125 C-54.053125 99.073125 -54.053125 99.073125 -55 98 C-54.505 97.01 -54.505 97.01 -54 96 C-53.278125 96.61875 -52.55625 97.2375 -51.8125 97.875 C-45.32201542 102.77892168 -38.88340428 102.709138 -31 102 C-21.82357361 100.03550642 -14.79803615 94.00310233 -9.21484375 86.6484375 C-5.13127001 80.23586901 -2.37357618 73.19958489 0 66 C0.26329102 65.25927246 0.52658203 64.51854492 0.79785156 63.75537109 C3.57196332 55.08915128 3.46131943 46.49067924 3.375 37.5 C3.37234131 36.70573608 3.36968262 35.91147217 3.36694336 35.09313965 C3.32004959 23.18272453 2.64563891 11.6534095 0 0 Z " fill="#0B0C0E" transform="translate(56,37)"/>
<path d="M0 0 C19 0 19 0 26.8125 6.25 C32.31974774 13.17339716 32.49590528 20.36906741 32.4375 28.875 C32.4674707 30.41220703 32.4674707 30.41220703 32.49804688 31.98046875 C32.49293387 40.02833546 31.21192017 47.16387648 25.9296875 53.47265625 C25.25164062 53.99730469 24.57359375 54.52195313 23.875 55.0625 C23.19179688 55.61035156 22.50859375 56.15820312 21.8046875 56.72265625 C14.595483 61.82527502 13.0094321 59 0 59 C0 39.53 0 20.06 0 0 Z " fill="#FCFCFC" transform="translate(320,52)"/>
<path d="M0 0 C2.5575 -0.061875 5.115 -0.12375 7.75 -0.1875 C8.94834473 -0.22846802 8.94834473 -0.22846802 10.17089844 -0.27026367 C13.33001951 -0.30726597 15.65507767 -0.17462369 18.4921875 1.26171875 C20.30328471 3.3496417 20.48877689 4.26935466 20.375 7 C20.35566406 8.0209375 20.35566406 8.0209375 20.3359375 9.0625 C20 11 20 11 18 14 C18.495 14.37125 18.99 14.7425 19.5 15.125 C21 17 21 17 21.4375 19.9375 C20.90740917 23.64813583 19.88937491 24.70549639 17 27 C13.93618406 28.53190797 10.73034134 28.10243613 7.375 28.0625 C4.94125 28.041875 2.5075 28.02125 0 28 C0 18.76 0 9.52 0 0 Z " fill="#0C0C0C" transform="translate(314,310)"/>
<path d="M0 0 C0.66 0.33 1.32 0.66 2 1 C2.77271686 3.56867989 3.42085605 6.07404263 4 8.6875 C4.17370117 9.46351562 4.34740234 10.23953125 4.52636719 11.0390625 C5.03339236 13.35634828 5.52065972 15.67684544 6 18 C6.34804687 19.66482422 6.34804687 19.66482422 6.703125 21.36328125 C10.78223123 44.75986912 9.01392496 68.68643038 -4 89 C-9.97420661 96.85435729 -18.62458685 102.87486228 -28 106 C-24.535 106.495 -24.535 106.495 -21 107 C-21 107.33 -21 107.66 -21 108 C-24.63 108 -28.26 108 -32 108 C-32.33 107.01 -32.66 106.02 -33 105 C-35.64 104.67 -38.28 104.34 -41 104 C-41 104.66 -41 105.32 -41 106 C-42.485 106.495 -42.485 106.495 -44 107 C-46.19140625 105.70703125 -46.19140625 105.70703125 -48.5625 103.8125 C-49.34753906 103.20019531 -50.13257813 102.58789062 -50.94140625 101.95703125 C-52.95138629 100.04621532 -53.95695269 98.54278021 -55 96 C-54.18595703 96.52400391 -54.18595703 96.52400391 -53.35546875 97.05859375 C-52.64003906 97.51363281 -51.92460938 97.96867187 -51.1875 98.4375 C-50.47980469 98.88996094 -49.77210937 99.34242188 -49.04296875 99.80859375 C-42.94514546 103.36468572 -34.9944811 102.84696734 -28.2734375 101.421875 C-18.5700466 98.03338929 -11.1861366 90.62463449 -6.3046875 81.73046875 C-3.85697876 76.60786872 -1.7773169 71.39099777 0 66 C0.26329102 65.25927246 0.52658203 64.51854492 0.79785156 63.75537109 C3.57196332 55.08915128 3.46131943 46.49067924 3.375 37.5 C3.37234131 36.70573608 3.36968262 35.91147217 3.36694336 35.09313965 C3.32004959 23.18272453 2.64563891 11.6534095 0 0 Z " fill="#131313" transform="translate(56,37)"/>
<path d="M0 0 C14 0 14 0 17.875 2.125 C20 5 20 5 20.625 8 C19.86496065 11.6481889 18.66069974 13.41532026 16 16 C15.01 16 14.02 16 13 16 C13.5053125 16.69867188 14.010625 17.39734375 14.53125 18.1171875 C15.1809375 19.02726562 15.830625 19.93734375 16.5 20.875 C17.1496875 21.77992188 17.799375 22.68484375 18.46875 23.6171875 C20 26 20 26 20 28 C13.4 28 6.8 28 0 28 C0 18.76 0 9.52 0 0 Z " fill="#1F1F1F" transform="translate(371,310)"/>
<path d="M0 0 C1.9375 1.1875 1.9375 1.1875 3 3 C3.5 5.4375 3.5 5.4375 3 8 C-1.10810811 12 -1.10810811 12 -4 12 C-3.175 12.94875 -2.35 13.8975 -1.5 14.875 C1 17.75 1 17.75 1 20 C1.66 20 2.32 20 3 20 C3.66 18.02 4.32 16.04 5 14 C5.99 14.33 6.98 14.66 8 15 C7.01 17.64 6.02 20.28 5 23 C5.66 23.45375 6.32 23.9075 7 24.375 C7.66 24.91125 8.32 25.4475 9 26 C9 26.66 9 27.32 9 28 C5.91716557 28.14554346 2.83521561 28.23413821 -0.25 28.3125 C-1.12269531 28.35439453 -1.99539062 28.39628906 -2.89453125 28.43945312 C-9.37637483 28.56315243 -9.37637483 28.56315243 -12.578125 25.671875 C-14.30951199 22.41838956 -14.61845157 20.633403 -14 17 C-13.34 16.4225 -12.68 15.845 -12 15.25 C-9.53057538 12.47189731 -9.8067388 11.55173951 -9.9375 7.9375 C-10.00839844 7.08027344 -10.07929688 6.22304688 -10.15234375 5.33984375 C-10 3 -10 3 -8.72265625 1.21484375 C-5.86886443 -0.79769425 -3.36632233 -0.36067739 0 0 Z " fill="#151515" transform="translate(243,310)"/>
<path d="M0 0 C2.51625 -0.103125 5.0325 -0.20625 7.625 -0.3125 C8.79603271 -0.38078003 8.79603271 -0.38078003 9.99072266 -0.45043945 C13.90440243 -0.52744128 16.35652908 -0.15128639 19.48828125 2.30078125 C22 5 22 5 22.5625 8.5 C21.97588435 12.15005291 21.29864977 14.12668779 19 17 C15.34447432 19.53953587 11.52000971 19.2291241 7.25 19.125 C4.8575 19.08375 2.465 19.0425 0 19 C0 12.73 0 6.46 0 0 Z " fill="#F9FAFA" transform="translate(342,202)"/>
<path d="M0 0 C15.32258065 0 15.32258065 0 21.375 4.9375 C23.95860035 9.80659297 23.72501162 14.61099613 23 20 C21.13245528 23.66038765 19.490792 24.70347983 16 26.8125 C12 28 12 28 0 28 C0 18.76 0 9.52 0 0 Z M4 3 C4 9.93 4 16.86 4 24 C13.17706376 24.87025643 13.17706376 24.87025643 17.0625 22.125 C20.28537401 18.59023496 20.39288048 15.90825598 20.35546875 11.26171875 C19.78672178 7.64298801 17.84834388 6.11969777 15 4 C11.26213521 2.57836298 11.26213521 2.57836298 4 3 Z " fill="#0D0D0D" transform="translate(156,310)"/>
<path d="M0 0 C4.1460495 1.71249871 6.76513235 4.10967484 9 8 C9.88341227 13.86978375 9.52221333 19.06890134 6 24 C1.89736682 27.71190621 -1.44085808 28.64935205 -6.8203125 28.38671875 C-11.28659581 27.59431365 -13.95779901 25.18116113 -16.875 21.875 C-18.56358494 17.55972739 -18.66646131 13.57002039 -18 9 C-13.7666579 0.68450658 -8.88485885 -1.05462552 0 0 Z M-12.89453125 6.17578125 C-15.27382121 10.10203006 -14.78775555 14.6279567 -14 19 C-12.19881522 22.00197464 -11.09667268 23.45166366 -8 25 C-3.92090194 25.38482057 -1.70910127 25.44121857 1.8125 23.25 C5.04392874 19.92624472 5.88941312 18.21645565 6.3125 13.5625 C5.97749464 9.74343893 5.37658622 7.97073277 3 5 C-1.96775346 1.27418491 -8.41646024 1.98584349 -12.89453125 6.17578125 Z " fill="#141515" transform="translate(19,310)"/>
<path d="M0 0 C5.94 0 11.88 0 18 0 C18 0.99 18 1.98 18 3 C13.38 3 8.76 3 4 3 C4 5.97 4 8.94 4 12 C8.62 12 13.24 12 18 12 C18 12.99 18 13.98 18 15 C13.38 15 8.76 15 4 15 C4 17.97 4 20.94 4 24 C8.62 24 13.24 24 18 24 C18 25.32 18 26.64 18 28 C12.06 28 6.12 28 0 28 C0 18.76 0 9.52 0 0 Z " fill="#363636" transform="translate(129,310)"/>
<path d="M0 0 C5.94 0 11.88 0 18 0 C18 0.99 18 1.98 18 3 C13.38 3 8.76 3 4 3 C4 5.97 4 8.94 4 12 C8.62 12 13.24 12 18 12 C18 12.99 18 13.98 18 15 C13.38 15 8.76 15 4 15 C4 17.97 4 20.94 4 24 C8.62 24 13.24 24 18 24 C18 25.32 18 26.64 18 28 C12.06 28 6.12 28 0 28 C0 18.76 0 9.52 0 0 Z " fill="#1D1D1D" transform="translate(102,310)"/>
<path d="M0 0 C5.94 0 11.88 0 18 0 C18 0.99 18 1.98 18 3 C13.05 3 8.1 3 3 3 C3 5.97 3 8.94 3 12 C7.95 12 12.9 12 18 12 C18 12.99 18 13.98 18 15 C13.38 15 8.76 15 4 15 C4 17.97 4 20.94 4 24 C8.62 24 13.24 24 18 24 C18 25.32 18 26.64 18 28 C12.06 28 6.12 28 0 28 C0 18.76 0 9.52 0 0 Z " fill="#2A2A2A" transform="translate(344,310)"/>
<path d="M0 0 C3.125 1.5 3.125 1.5 5 3 C4.67 3.99 4.34 4.98 4 6 C3.360625 5.67 2.72125 5.34 2.0625 5 C-2.01236841 3.66943072 -5.75190425 3.83340801 -10 4 C-9.87752931 6.44542939 -9.87752931 6.44542939 -9 9 C-6.84623018 10.36627423 -6.84623018 10.36627423 -4.1875 11.125 C-0.62771064 12.31334918 2.25870421 13.37187697 5 16 C5.69328139 18.70761865 5.48101248 21.25708359 5 24 C3.18836733 26.67431489 2.12238923 26.95920359 -1 28 C-4.06345304 28.40157624 -6.94545795 28.5028493 -10 28 C-13.0625 25.5 -13.0625 25.5 -15 23 C-14.67 22.34 -14.34 21.68 -14 21 C-12 22 -10 23 -8 24 C-4.5 24.25 -4.5 24.25 -1 24 C-0.34 23.34 0.32 22.68 1 22 C1 20.68 1 19.36 1 18 C0.08476562 17.67386719 -0.83046875 17.34773438 -1.7734375 17.01171875 C-2.96195313 16.57472656 -4.15046875 16.13773437 -5.375 15.6875 C-6.55835938 15.25824219 -7.74171875 14.82898438 -8.9609375 14.38671875 C-12 13 -12 13 -14 10 C-14.44242648 6.53432593 -14.38665268 4.66785463 -12.625 1.625 C-8.57028652 -0.88506072 -4.64399773 -0.6527105 0 0 Z " fill="#1B1B1B" transform="translate(202,310)"/>
<path d="M0 0 C0.99 0.495 0.99 0.495 2 1 C2.77271686 3.56867989 3.42085605 6.07404263 4 8.6875 C4.17370117 9.46351562 4.34740234 10.23953125 4.52636719 11.0390625 C5.03339236 13.35634828 5.52065972 15.67684544 6 18 C6.23203125 19.10988281 6.4640625 20.21976563 6.703125 21.36328125 C9.41794696 36.93472437 10.04835677 54.88497943 5 70 C4.34 69.67 3.68 69.34 3 69 C3 68.34 3 67.68 3 67 C1.515 67.495 1.515 67.495 0 68 C0.31831787 66.89906006 0.31831787 66.89906006 0.64306641 65.77587891 C3.15681438 56.20243099 3.47054673 47.21785394 3.375 37.375 C3.37101196 36.1910968 3.37101196 36.1910968 3.36694336 34.98327637 C3.31996063 23.11049973 2.6372388 11.61640902 0 0 Z " fill="#1F1F1F" transform="translate(56,37)"/>
<path d="M0 0 C3.125 1.5 3.125 1.5 5 3 C4.01 3.99 3.02 4.98 2 6 C1.34 5.34 0.68 4.68 0 4 C-2.21072977 3.75746187 -2.21072977 3.75746187 -4.625 3.875 C-5.85089844 3.90207031 -5.85089844 3.90207031 -7.1015625 3.9296875 C-8.04128906 3.96449219 -8.04128906 3.96449219 -9 4 C-9.66 5.65 -10.32 7.3 -11 9 C-10.34773438 9.17015625 -9.69546875 9.3403125 -9.0234375 9.515625 C1.2724334 12.37052725 1.2724334 12.37052725 5 16 C5.72237021 18.99874694 5.4519895 20.83607352 5 24 C3.18836733 26.67431489 2.12238923 26.95920359 -1 28 C-4.06345304 28.40157624 -6.94545795 28.5028493 -10 28 C-13.0625 25.5 -13.0625 25.5 -15 23 C-14.01 22.67 -13.02 22.34 -12 22 C-11.401875 22.309375 -10.80375 22.61875 -10.1875 22.9375 C-7.30197256 24.3390419 -5.17206653 24.26996311 -2 24 C-1.01 23.34 -0.02 22.68 1 22 C1 20.68 1 19.36 1 18 C0.08476563 17.66226562 -0.83046875 17.32453125 -1.7734375 16.9765625 C-2.96195313 16.53054688 -4.15046875 16.08453125 -5.375 15.625 C-6.55835937 15.18414062 -7.74171875 14.74328125 -8.9609375 14.2890625 C-12 13 -12 13 -14 11 C-14.41652031 7.25131724 -14.4979164 4.88266999 -12.625 1.5625 C-8.55479805 -0.86023925 -4.61796211 -0.64905122 0 0 Z " fill="#121212" transform="translate(88,310)"/>
<path d="M0 0 C5.94 0 11.88 0 18 0 C18 0.99 18 1.98 18 3 C13.05 3 8.1 3 3 3 C3 5.97 3 8.94 3 12 C7.95 12 12.9 12 18 12 C18 12.99 18 13.98 18 15 C13.05 15 8.1 15 3 15 C3 18.96 3 22.92 3 27 C2.01 27 1.02 27 0 27 C0 18.09 0 9.18 0 0 Z " fill="#141414" transform="translate(275,310)"/>
<path d="M0 0 C4.62 0 9.24 0 14 0 C14.99 0.99 15.98 1.98 17 3 C12.21997213 4.50771907 7.91515088 3.58205734 3 3 C3 6.63 3 10.26 3 14 C6.3 14 9.6 14 13 14 C12.34 15.65 11.68 17.3 11 19 C10.67 18.34 10.34 17.68 10 17 C8.02 17 6.04 17 4 17 C4 20.63 4 24.26 4 28 C2.68 28 1.36 28 0 28 C0 18.76 0 9.52 0 0 Z " fill="#1B1B1C" transform="translate(371,310)"/>
<path d="M0 0 C1.32 0 2.64 0 4 0 C4 7.92 4 15.84 4 24 C8.29 24 12.58 24 17 24 C17 25.32 17 26.64 17 28 C11.39 28 5.78 28 0 28 C0 18.76 0 9.52 0 0 Z " fill="#656565" transform="translate(50,310)"/>
<path d="M0 0 C1.588125 -0.061875 3.17625 -0.12375 4.8125 -0.1875 C6.15248047 -0.23970703 6.15248047 -0.23970703 7.51953125 -0.29296875 C10 0 10 0 11.80078125 1.35546875 C13.50731102 3.69569361 13.42408618 5.1727588 13 8 C11.80078125 9.64453125 11.80078125 9.64453125 10 11 C7.51953125 11.29296875 7.51953125 11.29296875 4.8125 11.1875 C3.224375 11.125625 1.63625 11.06375 0 11 C0 7.37 0 3.74 0 0 Z " fill="#E6E6E6" transform="translate(374,313)"/>
<path d="M0 0 C2.31 0.33 4.62 0.66 7 1 C7.8125 4.25 7.8125 4.25 8 8 C5.6875 10.4375 5.6875 10.4375 3 12 C2.34 12 1.68 12 1 12 C1.825 12.94875 2.65 13.8975 3.5 14.875 C6 17.75 6 17.75 6 20 C6.66 20 7.32 20 8 20 C8.66 18.02 9.32 16.04 10 14 C10.99 14.33 11.98 14.66 13 15 C11.22972246 19.60272162 9.81300782 22.7129243 6 26 C5.34 25.67 4.68 25.34 4 25 C3.87625 24.4225 3.7525 23.845 3.625 23.25 C2.78539044 20.22740559 0.96465457 18.40828625 -1 16 C-1 15.34 -1 14.68 -1 14 C-1.66 14 -2.32 14 -3 14 C-3 13.01 -3 12.02 -3 11 C-0.69 10.34 1.62 9.68 4 9 C4 7.02 4 5.04 4 3 C2.35 2.67 0.7 2.34 -1 2 C-0.67 1.34 -0.34 0.68 0 0 Z " fill="#222222" transform="translate(238,310)"/>
<path d="M0 0 C4.29 0 8.58 0 13 0 C13 0.33 13 0.66 13 1 C9.04 1 5.08 1 1 1 C1.33 8.59 1.66 16.18 2 24 C2.33 17.07 2.66 10.14 3 3 C3.33 3 3.66 3 4 3 C4 9.93 4 16.86 4 24 C10.435 23.505 10.435 23.505 17 23 C17 23.99 17 24.98 17 26 C12 28 12 28 0 28 C0 18.76 0 9.52 0 0 Z " fill="#3E3E3E" transform="translate(156,310)"/>
<path d="M0 0 C1.79133978 -0.05391993 3.58313899 -0.09275571 5.375 -0.125 C6.37273437 -0.14820313 7.37046875 -0.17140625 8.3984375 -0.1953125 C11 0 11 0 13 2 C13.1875 5.0625 13.1875 5.0625 13 8 C12 9 12 9 9.27734375 9.09765625 C7.62412109 9.08025391 7.62412109 9.08025391 5.9375 9.0625 C4.83277344 9.05347656 3.72804688 9.04445313 2.58984375 9.03515625 C1.30787109 9.01775391 1.30787109 9.01775391 0 9 C0 6.03 0 3.06 0 0 Z " fill="#F7F7F7" transform="translate(318,325)"/>
<path d="M0 0 C1.32 0 2.64 0 4 0 C4 9.24 4 18.48 4 28 C2.68 28 1.36 28 0 28 C0 18.76 0 9.52 0 0 Z " fill="#2C2C2C" transform="translate(37,310)"/>
<path d="M0 0 C1.32 0 2.64 0 4 0 C4 9.24 4 18.48 4 28 C2.68 28 1.36 28 0 28 C0 18.76 0 9.52 0 0 Z " fill="#2D2D2D" transform="translate(301,310)"/>
<path d="M0 0 C1.28583984 0.00580078 1.28583984 0.00580078 2.59765625 0.01171875 C4.9375 0.3125 4.9375 0.3125 7.9375 2.3125 C7.2775 2.3125 6.6175 2.3125 5.9375 2.3125 C5.9375 2.9725 5.9375 3.6325 5.9375 4.3125 C5.34582031 4.26609375 4.75414063 4.2196875 4.14453125 4.171875 C0.28478764 3.9955735 -2.51314567 4.08827374 -6.125 5.5625 C-9.29159624 10.05702369 -8.43911264 14.98970809 -8.0625 20.3125 C-9.3825 20.6425 -10.7025 20.9725 -12.0625 21.3125 C-13.91740641 17.60268719 -13.5165091 13.36126607 -13.0625 9.3125 C-10.07168588 3.43768655 -6.77464542 -0.13283618 0 0 Z " fill="#1F1F1F" transform="translate(14.0625,309.6875)"/>
<path d="M0 0 C1.60332791 -0.08121924 3.20784026 -0.13929134 4.8125 -0.1875 C6.15248047 -0.23970703 6.15248047 -0.23970703 7.51953125 -0.29296875 C10 0 10 0 11.83984375 1.34765625 C13 3 13 3 12.75 5.625 C12 8 12 8 11 9 C9.14712498 9.07226502 7.29166122 9.0838122 5.4375 9.0625 C4.42558594 9.05347656 3.41367187 9.04445313 2.37109375 9.03515625 C1.58863281 9.02355469 0.80617188 9.01195312 0 9 C0 6.03 0 3.06 0 0 Z " fill="#F1F1F1" transform="translate(318,313)"/>
<path d="M0 0 C0.33 0 0.66 0 1 0 C1 8.25 1 16.5 1 25 C1.66 24.67 2.32 24.34 3 24 C5.204364 23.77049681 7.41392173 23.58924067 9.625 23.4375 C11.40777344 23.31181641 11.40777344 23.31181641 13.2265625 23.18359375 C14.14179688 23.12300781 15.05703125 23.06242187 16 23 C16.33 21.35 16.66 19.7 17 18 C18.20628008 20.33214148 19.1654738 22.49642139 20 25 C15.78613015 28.11744546 12.25011065 28.37496314 7.1875 28.1875 C4.815625 28.125625 2.44375 28.06375 0 28 C0 18.76 0 9.52 0 0 Z " fill="#4D4E4D" transform="translate(314,310)"/>
<path d="M0 0 C1.98 0 3.96 0 6 0 C7.98 3.63 9.96 7.26 12 11 C8.04 11 4.08 11 0 11 C0 7.37 0 3.74 0 0 Z " fill="#F8F8F9" transform="translate(375,327)"/>
<path d="M0 0 C2.41734542 -0.08117951 4.83194949 -0.14056926 7.25 -0.1875 C7.93191406 -0.21263672 8.61382812 -0.23777344 9.31640625 -0.26367188 C12.4275533 -0.30897984 14.66470745 -0.17245142 17.453125 1.26171875 C19.78086573 3.877488 19.55481807 5.75745718 19.40625 9.125 C19 11 19 11 17 13 C16.01 13.495 16.01 13.495 15 14 C15 10.66666667 15 7.33333333 15 4 C10.05 3.67 5.1 3.34 0 3 C0 2.01 0 1.02 0 0 Z " fill="#191919" transform="translate(315,310)"/>
<path d="M0 0 C0.33 0 0.66 0 1 0 C1 2.97 1 5.94 1 9 C5.62 9 10.24 9 15 9 C15 9.99 15 10.98 15 12 C10.38 12 5.76 12 1 12 C1 14.97 1 17.94 1 21 C5.62 21 10.24 21 15 21 C15 21.33 15 21.66 15 22 C10.05 22 5.1 22 0 22 C-0.72004128 14.39956431 -1.1508192 7.54425923 0 0 Z " fill="#353535" transform="translate(105,313)"/>
<path d="M0 0 C0.66 0 1.32 0 2 0 C3.36139053 5.1810634 2.59764648 7.7186085 0.0625 12.375 C-0.50339844 13.43460938 -1.06929687 14.49421875 -1.65234375 15.5859375 C-2.09707031 16.38257812 -2.54179688 17.17921875 -3 18 C-3.99 17.67 -4.98 17.34 -6 17 C-5.57664615 10.50857435 -3.08900201 5.66507011 0 0 Z " fill="#121212" transform="translate(57,104)"/>
<path d="M0 0 C0.66 0 1.32 0 2 0 C2.33 7.59 2.66 15.18 3 23 C6.96 23.33 10.92 23.66 15 24 C15 24.66 15 25.32 15 26 C10.05 26 5.1 26 0 26 C0 17.42 0 8.84 0 0 Z " fill="#010101" transform="translate(51,311)"/>
<path d="M0 0 C0.99 0.495 0.99 0.495 2 1 C2.80024475 3.56984257 3.46710691 6.06895667 4.0625 8.6875 C4.2387793 9.44538818 4.41505859 10.20327637 4.59667969 10.98413086 C6.14212708 17.97297116 6.7731035 24.84141543 7 32 C6.34 32 5.68 32 5 32 C5 36.29 5 40.58 5 45 C4.67 45 4.34 45 4 45 C3.98541748 44.31188232 3.97083496 43.62376465 3.95581055 42.91479492 C3.61344463 28.37452653 2.73839902 14.29478736 0 0 Z " fill="#5D5D5D" transform="translate(56,37)"/>
<path d="M0 0 C0.54269531 0.34933594 1.08539063 0.69867188 1.64453125 1.05859375 C2.35996094 1.51363281 3.07539062 1.96867188 3.8125 2.4375 C4.87404297 3.11619141 4.87404297 3.11619141 5.95703125 3.80859375 C10.58342068 6.50658376 15.4452818 6.31726863 20.63867188 6.51757812 C25.78526139 6.78526139 25.78526139 6.78526139 28 9 C27.67 9.33 27.34 9.66 27 10 C29.31 10.33 31.62 10.66 34 11 C34 11.33 34 11.66 34 12 C30.37 12 26.74 12 23 12 C22.67 11.01 22.34 10.02 22 9 C19.36 8.67 16.72 8.34 14 8 C14 8.66 14 9.32 14 10 C13.01 10.33 12.02 10.66 11 11 C8.80859375 9.70703125 8.80859375 9.70703125 6.4375 7.8125 C5.65246094 7.20019531 4.86742187 6.58789062 4.05859375 5.95703125 C2.04861371 4.04621532 1.04304731 2.54278021 0 0 Z " fill="#2F2F2F" transform="translate(1,133)"/>
<path d="M0 0 C1.32 0.66 2.64 1.32 4 2 C3.34 3.65 2.68 5.3 2 7 C1.34 7 0.68 7 0 7 C0 8.32 0 9.64 0 11 C-3.375 11.125 -3.375 11.125 -7 11 C-7.66 10.34 -8.32 9.68 -9 9 C-8.690625 8.401875 -8.38125 7.80375 -8.0625 7.1875 C-6.89790296 4.91043228 -6.89790296 4.91043228 -6 2 C-4.02 2 -2.04 2 0 2 C0 1.34 0 0.68 0 0 Z " fill="#060608" transform="translate(69,131)"/>
<path d="M0 0 C3.79379058 1.49041773 5.68343758 3.69062512 8 7 C8 7.66 8 8.32 8 9 C5.20129973 10.39935013 3.09501208 10.25265405 0 10 C-1.9375 8.8125 -1.9375 8.8125 -3 7 C-2.75546876 3.65807308 -2.39456443 2.39456443 0 0 Z " fill="#F1F1F1" transform="translate(235,325)"/>
<path d="M0 0 C1.05960937 0.00676758 1.05960937 0.00676758 2.140625 0.01367188 C3.88545275 0.02546125 5.630237 0.04339676 7.375 0.0625 C7.375 0.7225 7.375 1.3825 7.375 2.0625 C2.755 2.0625 -1.865 2.0625 -6.625 2.0625 C-6.625 6.0225 -6.625 9.9825 -6.625 14.0625 C-7.615 14.0625 -8.605 14.0625 -9.625 14.0625 C-9.625 9.7725 -9.625 5.4825 -9.625 1.0625 C-6.55966836 -0.47016582 -3.35745728 -0.04026471 0 0 Z " fill="#080808" transform="translate(284.625,322.9375)"/>
<path d="M0 0 C0.99 0 1.98 0 3 0 C3 8.25 3 16.5 3 25 C2.34 25 1.68 25 1 25 C0.17463655 19.28094617 -0.12753701 13.7732851 -0.0625 8 C-0.05798828 7.22527344 -0.05347656 6.45054688 -0.04882812 5.65234375 C-0.03719758 3.76819476 -0.01926906 1.88408635 0 0 Z " fill="#282828" transform="translate(61,69)"/>
<path d="M0 0 C0.66 0.99 1.32 1.98 2 3 C1.67 3.66 1.34 4.32 1 5 C0.58406474 9.51929654 0.44151166 13.64787033 2.1875 17.875 C4.24194311 20.28365743 6.44615127 22.13638066 9 24 C5.7 24 2.4 24 -1 24 C-1.02687433 20.37495101 -1.04677776 16.75009954 -1.0625 13.125 C-1.07087891 12.09246094 -1.07925781 11.05992187 -1.08789062 9.99609375 C-1.09111328 9.00996094 -1.09433594 8.02382813 -1.09765625 7.0078125 C-1.10289307 6.09660645 -1.10812988 5.18540039 -1.11352539 4.24658203 C-1 2 -1 2 0 0 Z " fill="#F4F5F4" transform="translate(1,314)"/>
<path d="M0 0 C2.5 1.375 2.5 1.375 5 3 C5 3.66 5 4.32 5 5 C-1.27 5 -7.54 5 -14 5 C-14.33 4.34 -14.66 3.68 -15 3 C-14.67 2.34 -14.34 1.68 -14 1 C-9.66666667 1 -5.33333333 1 -1 1 C-0.67 0.67 -0.34 0.34 0 0 Z " fill="#292929" transform="translate(247,333)"/>
<path d="M0 0 C3.3 0 6.6 0 10 0 C9.67 0.66 9.34 1.32 9 2 C6.69 2 4.38 2 2 2 C2 8.93 2 15.86 2 23 C1.34 23.33 0.68 23.66 0 24 C0 16.08 0 8.16 0 0 Z " fill="#010101" transform="translate(157,311)"/>
<path d="M0 0 C2.85026332 0.30538536 4.05165508 1.04448076 6.25 2.9375 C8.6772399 7.18516982 8.73144558 11.19457264 8 16 C7.34 16.66 6.68 17.32 6 18 C5.72736328 16.75283203 5.72736328 16.75283203 5.44921875 15.48046875 C5.07216797 13.85044922 5.07216797 13.85044922 4.6875 12.1875 C4.32205078 10.56908203 4.32205078 10.56908203 3.94921875 8.91796875 C2.99004184 5.96938787 2.18917506 5.04200363 0 3 C0 2.01 0 1.02 0 0 Z " fill="#151515" transform="translate(20,312)"/>
<path d="M0 0 C5.61 0 11.22 0 17 0 C17 0.66 17 1.32 17 2 C12.05 2 7.1 2 2 2 C2.04125 3.2375 2.0825 4.475 2.125 5.75 C2.24851563 9.455469 1.80568106 10.38863788 0 14 C0 9.38 0 4.76 0 0 Z " fill="#030303" transform="translate(130,311)"/>
<path d="M0 0 C0.86625 0.33 1.7325 0.66 2.625 1 C7.14108966 2.33810064 10.52843429 2.4905219 15 1 C15.33 2.32 15.66 3.64 16 5 C11.95177233 6.34940922 8.22757949 6.69595879 4 6 C0.9375 3.5 0.9375 3.5 -1 1 C-0.67 0.67 -0.34 0.34 0 0 Z " fill="#242424" transform="translate(74,332)"/>
<path d="M0 0 C0.99 0.33 1.98 0.66 3 1 C1.22972246 5.60272162 -0.18699218 8.7129243 -4 12 C-4.66 11.67 -5.32 11.34 -6 11 C-6.5625 9.125 -6.5625 9.125 -7 7 C-7.33 6.01 -7.66 5.02 -8 4 C-6.68 4 -5.36 4 -4 4 C-4 4.66 -4 5.32 -4 6 C-3.34 6 -2.68 6 -2 6 C-1.34 4.02 -0.68 2.04 0 0 Z " fill="#191919" transform="translate(248,324)"/>
<path d="M0 0 C5.61 0 11.22 0 17 0 C17 0.66 17 1.32 17 2 C12.05 2 7.1 2 2 2 C2 4.64 2 7.28 2 10 C1.01 10.495 1.01 10.495 0 11 C0 7.37 0 3.74 0 0 Z " fill="#030303" transform="translate(345,311)"/>
<path d="M0 0 C2.625 0.375 2.625 0.375 5 1 C4.67 2.98 4.34 4.96 4 7 C2.35 7.33 0.7 7.66 -1 8 C-1.625 5.125 -1.625 5.125 -2 2 C-1.34 1.34 -0.68 0.68 0 0 Z " fill="#E8E8E8" transform="translate(238,312)"/>
<path d="M0 0 C0.33 0.66 0.66 1.32 1 2 C3.34386809 2.91031272 3.34386809 2.91031272 6.0625 3.625 C6.98160156 3.88539063 7.90070313 4.14578125 8.84765625 4.4140625 C9.55792969 4.60742188 10.26820312 4.80078125 11 5 C7.3125 8.015625 7.3125 8.015625 4.5 7.875 C1.80733378 6.93256682 0.05519898 5.9790805 -2 4 C-2 3.01 -2 2.02 -2 1 C-1.34 0.67 -0.68 0.34 0 0 Z " fill="#1C1C1C" transform="translate(76,317)"/>
<path d="M0 0 C4.62 0 9.24 0 14 0 C14 0.99 14 1.98 14 3 C9.38 3 4.76 3 0 3 C0 2.01 0 1.02 0 0 Z " fill="#111111" transform="translate(133,322)"/>
<path d="M0 0 C0.66 0 1.32 0 2 0 C2 3.63 2 7.26 2 11 C1.01 10.67 0.02 10.34 -1 10 C-2.38125018 7.23749964 -2.19079306 5.05268901 -2 2 C-1.34 1.34 -0.68 0.68 0 0 Z " fill="#101010" transform="translate(231,325)"/>
<path d="M0 0 C2.03219488 3.40351338 2.36891039 6.3232927 2.625 10.25 C2.69976562 11.32765625 2.77453125 12.4053125 2.8515625 13.515625 C2.92503906 14.74539062 2.92503906 14.74539062 3 16 C2.34 16 1.68 16 1 16 C-1.49310643 12.26034036 -1.0603261 10.70929359 -0.625 6.3125 C-0.51414063 5.13300781 -0.40328125 3.95351562 -0.2890625 2.73828125 C-0.19367187 1.83464844 -0.09828125 0.93101563 0 0 Z " fill="#151515" transform="translate(60,82)"/>
<path d="M0 0 C0.99 0.99 1.98 1.98 3 3 C1.12050295 6.57104439 -0.17053157 8.54744301 -4 10 C-3.43454163 6.04179141 -2.19097652 3.3340947 0 0 Z " fill="#1D1D1D" transform="translate(24,327)"/>
<path d="M0 0 C3 1 3 1 3.9375 2.8125 C4 5 4 5 2.0625 7.25 C1.381875 7.8275 0.70125 8.405 0 9 C-1.32 8.01 -2.64 7.02 -4 6 C-2.68 4.02 -1.36 2.04 0 0 Z " fill="#1B1B1B" transform="translate(50,118)"/>
<path d="M0 0 C2.5 1.375 2.5 1.375 5 3 C5 3.66 5 4.32 5 5 C1.37 5 -2.26 5 -6 5 C-5.195625 4.360625 -4.39125 3.72125 -3.5625 3.0625 C-1.7249496 1.59396498 -1.7249496 1.59396498 0 0 Z " fill="#7E7E7E" transform="translate(247,333)"/>
<path d="M0 0 C2.86724686 0.57344937 3.8614515 0.8614515 6 3 C6.125 6.125 6.125 6.125 6 9 C5.01 9.495 5.01 9.495 4 10 C1.125 3.375 1.125 3.375 0 0 Z " fill="#141414" transform="translate(329,324)"/>
<path d="M0 0 C0.66 1.32 1.32 2.64 2 4 C0.71034824 5.37562854 -0.62689293 6.70766393 -2 8 C-2.66 8 -3.32 8 -4 8 C-4.33 6.68 -4.66 5.36 -5 4 C-3.35 2.68 -1.7 1.36 0 0 Z " fill="#0C0C0C" transform="translate(48,124)"/>
<path d="M0 0 C0.66 0 1.32 0 2 0 C0.87548273 2.9719385 -0.22293791 5.33440687 -2 8 C-2.66 8 -3.32 8 -4 8 C-4.66 9.65 -5.32 11.3 -6 13 C-6.99 13 -7.98 13 -9 13 C-7.54970675 10.82754427 -6.09044056 8.66219911 -4.625 6.5 C-4.2125 5.87996094 -3.8 5.25992187 -3.375 4.62109375 C-2.30100332 3.04474379 -1.15511468 1.51791243 0 0 Z " fill="#1C1C1C" transform="translate(38,20)"/>
<path d="M0 0 C0.103125 0.5775 0.20625 1.155 0.3125 1.75 C1.09792798 4.32049158 2.30504197 5.93657284 4 8 C2.35 7.67 0.7 7.34 -1 7 C-1.33 6.01 -1.66 5.02 -2 4 C-2.66 4 -3.32 4 -4 4 C-4 3.01 -4 2.02 -4 1 C-2.68 0.67 -1.36 0.34 0 0 Z " fill="#0B0B0B" transform="translate(239,320)"/>
<path d="M0 0 C2.31 0 4.62 0 7 0 C7.33 0.66 7.66 1.32 8 2 C7.01 3.485 7.01 3.485 6 5 C3.69 4.34 1.38 3.68 -1 3 C-0.67 2.01 -0.34 1.02 0 0 Z " fill="#212121" transform="translate(195,322)"/>
<path d="M0 0 C0.66 1.32 1.32 2.64 2 4 C0.35 5.65 -1.3 7.3 -3 9 C-3.66 8.01 -4.32 7.02 -5 6 C-3.35 4.02 -1.7 2.04 0 0 Z " fill="#1E1E1E" transform="translate(177,326)"/>
<path d="M0 0 C2.95183101 2.95183101 3.08663988 5.95511947 4 10 C3.34 10 2.68 10 2 10 C1.34 10.99 0.68 11.98 0 13 C0 8.71 0 4.42 0 0 Z " fill="#E6E7E9" transform="translate(215,227)"/>
<path d="M0 0 C1.98 0.495 1.98 0.495 4 1 C3.67 3.97 3.34 6.94 3 10 C2.34 9.34 1.68 8.68 1 8 C1 6.68 1 5.36 1 4 C0.34 4 -0.32 4 -1 4 C-0.67 2.68 -0.34 1.36 0 0 Z " fill="#060608" transform="translate(59,19)"/>
<path d="M0 0 C5.75 1.875 5.75 1.875 8 3 C8 3.66 8 4.32 8 5 C5.1875 5.25 5.1875 5.25 2 5 C0.125 3 0.125 3 -1 1 C-0.67 0.67 -0.34 0.34 0 0 Z " fill="#121212" transform="translate(74,332)"/>
<path d="M0 0 C0.66 1.32 1.32 2.64 2 4 C-0.75 5.1875 -0.75 5.1875 -4 6 C-6.375 4.625 -6.375 4.625 -8 3 C-5.36 2.01 -2.72 1.02 0 0 Z " fill="#232323" transform="translate(33,136)"/>
<path d="M0 0 C3.875 0.875 3.875 0.875 5 2 C5.04092937 4.33297433 5.04241723 6.66705225 5 9 C0.57142857 3.85714286 0.57142857 3.85714286 0 0 Z " fill="#0A0A0A" transform="translate(202,324)"/>
<path d="M0 0 C-1.375 1.5 -1.375 1.5 -3 3 C-3.66 3 -4.32 3 -5 3 C-5 2.34 -5 1.68 -5 1 C-7.97 1 -10.94 1 -14 1 C-14 0.67 -14 0.34 -14 0 C-12.41773035 -0.19627391 -10.83410729 -0.38165538 -9.25 -0.5625 C-8.36828125 -0.66691406 -7.4865625 -0.77132813 -6.578125 -0.87890625 C-4.11567549 -0.99456676 -2.33461936 -0.73638695 0 0 Z " fill="#373737" transform="translate(174,334)"/>
<path d="M0 0 C0.66 1.32 1.32 2.64 2 4 C-0.3125 4.625 -0.3125 4.625 -3 5 C-3.99 4.34 -4.98 3.68 -6 3 C-4.02 2.01 -2.04 1.02 0 0 Z M-5 5 C-3 6 -3 6 -3 6 Z " fill="#0C0C0F" transform="translate(365,216)"/>
<path d="M0 0 C1.27118864 0.79109602 2.54193623 1.58290078 3.8125 2.375 C4.52019531 2.81585938 5.22789063 3.25671875 5.95703125 3.7109375 C7.65432039 4.78188476 9.33014358 5.88676239 11 7 C10.34 7 9.68 7 9 7 C8.67 7.66 8.34 8.32 8 9 C6.66079162 7.88200014 5.32877444 6.75538103 4 5.625 C2.88625 4.68527344 2.88625 4.68527344 1.75 3.7265625 C1.1725 3.15679687 0.595 2.58703125 0 2 C0 1.34 0 0.68 0 0 Z " fill="#373737" transform="translate(1,133)"/>
<path d="M0 0 C2.50037734 2.17424117 3.43628586 3.73045798 4 7 C2.35 7.33 0.7 7.66 -1 8 C-0.67 5.36 -0.34 2.72 0 0 Z " fill="#777777" transform="translate(393,25)"/>
<path d="M0 0 C1.875 0.25 1.875 0.25 4 1 C5.25 3.0625 5.25 3.0625 6 5 C4.35 4.67 2.7 4.34 1 4 C0.67 2.68 0.34 1.36 0 0 Z " fill="#2F2F2F" transform="translate(385,333)"/>
<path d="M0 0 C2.31 0.33 4.62 0.66 7 1 C7 2.65 7 4.3 7 6 C6.608125 5.525625 6.21625 5.05125 5.8125 4.5625 C3.59191626 2.64820367 1.86624291 2.38733012 -1 2 C-0.67 1.34 -0.34 0.68 0 0 Z " fill="#0D0D0D" transform="translate(238,310)"/>
<path d="M0 0 C0.99 0.33 1.98 0.66 3 1 C3.6875 3.0625 3.6875 3.0625 4 5 C2.68 5.33 1.36 5.66 0 6 C-1.125 2.25 -1.125 2.25 0 0 Z " fill="#151618" transform="translate(82,48)"/>
<path d="M0 0 C0.66 0 1.32 0 2 0 C2 0.66 2 1.32 2 2 C2.99 2 3.98 2 5 2 C4.67 3.32 4.34 4.64 4 6 C2.02 5.34 0.04 4.68 -2 4 C-1.34 2.68 -0.68 1.36 0 0 Z " fill="#121315" transform="translate(338,49)"/>
<path d="M0 0 C1.65 1.65 3.3 3.3 5 5 C4.01 5.33 3.02 5.66 2 6 C1.67 5.01 1.34 4.02 1 3 C-0.98 3.99 -0.98 3.99 -3 5 C-2.01 3.35 -1.02 1.7 0 0 Z " fill="#19191B" transform="translate(51,1)"/>
<path d="M0 0 C0.33 0.66 0.66 1.32 1 2 C1.66 2.33 2.32 2.66 3 3 C1.68 3 0.36 3 -1 3 C-1 3.99 -1 4.98 -1 6 C-0.34 6.33 0.32 6.66 1 7 C-0.98 7.99 -0.98 7.99 -3 9 C-4 6 -4 6 -3.0625 3.8125 C-2.5365625 2.9153125 -2.5365625 2.9153125 -2 2 C-1.34 2 -0.68 2 0 2 C0 1.34 0 0.68 0 0 Z " fill="#3C3C3C" transform="translate(236,318)"/>
<path d="M0 0 C2.31 0.33 4.62 0.66 7 1 C5.515 2.485 5.515 2.485 4 4 C1.525 3.01 1.525 3.01 -1 2 C-0.67 1.34 -0.34 0.68 0 0 Z " fill="#171717" transform="translate(167,311)"/>
<path d="M0 0 C1.125 3.75 1.125 3.75 0 6 C-2.0625 6.625 -2.0625 6.625 -4 7 C-4 4 -4 4 -2 1.8125 C-1.34 1.214375 -0.68 0.61625 0 0 Z " fill="#1A1B1D" transform="translate(69,127)"/>
<path d="M0 0 C0.99 0.33 1.98 0.66 3 1 C2.67 3.31 2.34 5.62 2 8 C0 6 0 6 -0.125 2.875 C-0.08375 1.92625 -0.0425 0.9775 0 0 Z " fill="#060606" transform="translate(25,322)"/>
<path d="M0 0 C1.32 0 2.64 0 4 0 C4 0.66 4 1.32 4 2 C4.66 2 5.32 2 6 2 C6.33 1.34 6.66 0.68 7 0 C7 0.99 7 1.98 7 3 C5.35 3.33 3.7 3.66 2 4 C1.34 2.68 0.68 1.36 0 0 Z " fill="#232323" transform="translate(240,328)"/>
<path d="M0 0 C1.66666667 0 3.33333333 0 5 0 C4.1875 1.9375 4.1875 1.9375 3 4 C2.01 4.33 1.02 4.66 0 5 C-0.33 4.01 -0.66 3.02 -1 2 C-0.67 1.34 -0.34 0.68 0 0 Z " fill="#0D0D0F" transform="translate(378,237)"/>
<path d="M0 0 C0.99 1.32 1.98 2.64 3 4 C2.01 4 1.02 4 0 4 C-0.66 5.32 -1.32 6.64 -2 8 C-2.66 7.67 -3.32 7.34 -4 7 C-2.68 4.69 -1.36 2.38 0 0 Z " fill="#212224" transform="translate(76,111)"/>
</svg>
