<?xml version="1.0" encoding="UTF-8"?>
<svg version="1.1" xmlns="http://www.w3.org/2000/svg" width="500" height="188">
<path d="M0 0 C1.15845428 0.00328812 2.31690857 0.00657623 3.51046753 0.00996399 C5.93574729 0.02031496 8.36100373 0.0401442 10.78613281 0.0690918 C14.51641301 0.1135701 18.24604865 0.13059627 21.9765625 0.14257812 C24.33855107 0.15598681 26.70053166 0.1709055 29.0625 0.1875 C30.18214142 0.19488693 31.30178284 0.20227386 32.45535278 0.20988464 C33.99363235 0.2291375 33.99363235 0.2291375 35.56298828 0.2487793 C36.46912872 0.2586235 37.37526917 0.26846771 38.30886841 0.27861023 C40.3671875 0.42578125 40.3671875 0.42578125 41.3671875 1.42578125 C41.45444973 3.20649371 41.47417791 4.99061265 41.46484375 6.7734375 C41.46000977 8.39282227 41.46000977 8.39282227 41.45507812 10.04492188 C41.44250977 11.74938477 41.44250977 11.74938477 41.4296875 13.48828125 C41.42517578 14.62845703 41.42066406 15.76863281 41.41601562 16.94335938 C41.40418497 19.77088476 41.3877016 22.59830765 41.3671875 25.42578125 C40.7769429 25.4338681 40.1866983 25.44195496 39.5785675 25.45028687 C33.43017182 25.53640558 27.28209581 25.63591252 21.1340332 25.74316406 C18.84014254 25.7814253 16.54619247 25.81628314 14.25219727 25.84765625 C10.9530719 25.89336831 7.65435454 25.95135347 4.35546875 26.01171875 C3.33133377 26.02326996 2.30719879 26.03482117 1.25202942 26.04672241 C0.29141098 26.0665921 -0.66920746 26.08646179 -1.65893555 26.10693359 C-2.92135323 26.1269191 -2.92135323 26.1269191 -4.20927429 26.14730835 C-7.0131868 26.46948757 -9.12947732 27.12089892 -11.6328125 28.42578125 C-12.38344969 31.19736472 -12.6328125 33.56792644 -12.6328125 36.42578125 C-7.34185589 38.21540423 -2.03504581 39.93136966 3.30517578 41.56787109 C31.03148234 50.12579545 31.03148234 50.12579545 37.7734375 60.61328125 C42.05688327 68.93540446 42.85488259 78.289039 40.6484375 87.390625 C39.70577796 89.85750419 38.64765174 92.11757597 37.3671875 94.42578125 C37.0165625 95.0703125 36.6659375 95.71484375 36.3046875 96.37890625 C31.68464951 103.75813359 24.4403165 107.40371783 16.31455994 109.78573608 C10.95098938 110.95047773 5.60582814 110.79087227 0.140625 110.71875 C-1.08820404 110.71450516 -2.31703308 110.71026031 -3.58309937 110.70588684 C-7.4749014 110.68920915 -11.36616923 110.65157629 -15.2578125 110.61328125 C-17.91014873 110.59822036 -20.56249314 110.58453442 -23.21484375 110.57226562 C-29.68767963 110.53934135 -36.16020788 110.48925133 -42.6328125 110.42578125 C-42.69066897 106.4675089 -42.72635967 102.50934455 -42.7578125 98.55078125 C-42.77457031 97.42285156 -42.79132813 96.29492188 -42.80859375 95.1328125 C-42.81503906 94.05644531 -42.82148438 92.98007813 -42.828125 91.87109375 C-42.83859863 90.87609863 -42.84907227 89.88110352 -42.85986328 88.85595703 C-42.6328125 86.42578125 -42.6328125 86.42578125 -40.6328125 84.42578125 C-38.54553223 84.15403748 -38.54553223 84.15403748 -35.93945312 84.12280273 C-34.96504272 84.10616074 -33.99063232 84.08951874 -32.98669434 84.07237244 C-31.93147583 84.06395828 -30.87625732 84.05554413 -29.7890625 84.046875 C-28.70902954 84.02988052 -27.62899658 84.01288605 -26.51623535 83.99537659 C-23.05515429 83.94210394 -19.59408585 83.90188905 -16.1328125 83.86328125 C-12.67160135 83.81939864 -9.21048495 83.77271572 -5.74938965 83.72047424 C-3.59264196 83.68844802 -1.4358106 83.66157972 0.72106934 83.64024353 C1.69547974 83.62675369 2.66989014 83.61326385 3.67382812 83.59936523 C4.96383728 83.58509743 4.96383728 83.58509743 6.27990723 83.57054138 C8.42707166 83.55594707 8.42707166 83.55594707 10.3671875 82.42578125 C10.78465358 79.55213334 10.78465358 79.55213334 10.3671875 76.42578125 C6.96811252 73.92736861 3.51832757 72.70842458 -0.5078125 71.55078125 C-1.64605469 71.21046875 -2.78429687 70.87015625 -3.95703125 70.51953125 C-5.17003906 70.15859375 -6.38304687 69.79765625 -7.6328125 69.42578125 C-21.79192727 65.18639493 -33.6331256 60.56812402 -41.6328125 47.42578125 C-44.02585681 40.24664833 -43.99194287 29.40880066 -41.0078125 22.36328125 C-39.88671875 20.33984375 -39.88671875 20.33984375 -38.6328125 18.42578125 C-38.20871094 17.73226563 -37.78460938 17.03875 -37.34765625 16.32421875 C-28.79391269 3.60082303 -14.58448234 -0.23225996 0 0 Z " fill="#00AEEF" transform="translate(300.6328125,11.57421875)"/>
<path d="M0 0 C1.25695679 0.00539291 1.25695679 0.00539291 2.53930664 0.01089478 C3.41727402 0.01074875 4.29524139 0.01060272 5.19981384 0.01045227 C8.11630685 0.01115172 11.03273683 0.01894561 13.94921875 0.02676392 C15.96561142 0.02862798 17.98200454 0.03005194 19.99839783 0.03105164 C25.31671388 0.03487772 30.6350028 0.04470878 35.95330811 0.05575562 C41.37576938 0.06596779 46.79823502 0.07054884 52.22070312 0.07559204 C62.86850153 0.08633097 73.51627976 0.10340847 84.1640625 0.12442017 C85.1640625 3.12442017 85.1640625 3.12442017 84.23046875 5.58535767 C80.79107509 12.24974122 77.06626687 18.64554256 73.08984375 25.00332642 C69.24760781 31.23039845 65.89743699 37.70972335 62.5234375 44.19863892 C62.04366455 45.11967407 61.5638916 46.04070923 61.06958008 46.98965454 C60.11283172 48.82900446 59.15937799 50.67007301 58.2097168 52.51309204 C57.76023682 53.37869751 57.31075684 54.24430298 56.84765625 55.13613892 C56.45118896 55.90401733 56.05472168 56.67189575 55.64624023 57.46304321 C54.42453358 59.65672205 53.14346651 61.75671794 51.79711914 63.87368774 C49.08395531 68.17544403 46.69975081 72.61558603 44.3515625 77.12442017 C43.94486328 77.89914673 43.53816406 78.67387329 43.11914062 79.47207642 C42.13132781 81.35473143 41.14728954 83.23936615 40.1640625 85.12442017 C40.98758461 85.12108925 40.98758461 85.12108925 41.82774353 85.11769104 C47.52114209 85.09563659 53.2145286 85.0805129 58.90795898 85.06948853 C61.03524264 85.06444718 63.16252281 85.05761425 65.28979492 85.04898071 C68.34034076 85.03690638 71.39084095 85.03119002 74.44140625 85.02676392 C75.87733376 85.01902199 75.87733376 85.01902199 77.3422699 85.01112366 C78.22310745 85.01104813 79.10394501 85.0109726 80.01147461 85.01089478 C80.79090927 85.00867416 81.57034393 85.00645355 82.37339783 85.00416565 C84.1640625 85.12442017 84.1640625 85.12442017 85.1640625 86.12442017 C85.26365871 87.96601039 85.29486661 89.81138984 85.296875 91.65567017 C85.29816406 92.77586548 85.29945312 93.89606079 85.30078125 95.05020142 C85.29691406 96.2296936 85.29304688 97.40918579 85.2890625 98.62442017 C85.29292969 99.80391235 85.29679687 100.98340454 85.30078125 102.19863892 C85.29949219 103.31883423 85.29820313 104.43902954 85.296875 105.59317017 C85.29574707 106.62893188 85.29461914 107.6646936 85.29345703 108.73184204 C85.1640625 111.12442017 85.1640625 111.12442017 84.1640625 112.12442017 C81.39467284 112.2195982 78.65029091 112.24996282 75.88061523 112.23794556 C74.57829453 112.2381646 74.57829453 112.2381646 73.24966431 112.23838806 C70.36563664 112.23768862 67.4816727 112.22989479 64.59765625 112.22207642 C62.60368383 112.22021235 60.60971095 112.21878839 58.61573792 112.2177887 C53.35660548 112.21396264 48.09750047 112.20413162 42.83837891 112.19308472 C37.47624075 112.18287247 32.11409819 112.17829148 26.75195312 112.17324829 C16.22264417 112.16250943 5.69335561 112.14543196 -4.8359375 112.12442017 C-5.87593079 110.24020386 -5.87593079 110.24020386 -6.8359375 108.12442017 C-6.19604492 106.2718811 -6.19604492 106.2718811 -4.94140625 104.35879517 C-4.48483643 103.64167358 -4.0282666 102.924552 -3.55786133 102.18569946 C-2.79832153 101.04161621 -2.79832153 101.04161621 -2.0234375 99.87442017 C-0.98709391 98.25231002 0.04671745 96.62857957 1.078125 95.00332642 C1.86171387 93.77766968 1.86171387 93.77766968 2.66113281 92.5272522 C4.85218109 89.02427995 6.8597164 85.43072104 8.8515625 81.81192017 C11.42017005 77.18191809 14.04916643 72.61894098 16.8515625 68.12442017 C20.8061628 61.77792452 24.58468502 55.33387946 28.3515625 48.87442017 C28.94606201 47.85606079 29.54056152 46.83770142 30.15307617 45.78848267 C33.55868034 39.93693567 36.88677899 34.04863621 40.1640625 28.12442017 C39.6047403 28.1141127 39.04541809 28.10380524 38.46914673 28.09318542 C32.6619267 27.98523206 26.85486536 27.87062519 21.04785156 27.75210571 C18.87893994 27.70872098 16.70999337 27.66704855 14.54101562 27.62710571 C11.42827815 27.56948877 8.31571715 27.50576978 5.203125 27.44082642 C4.2291275 27.42411392 3.25513 27.40740143 2.25161743 27.3901825 C1.35083466 27.37023727 0.45005188 27.35029205 -0.47802734 27.32974243 C-1.27300629 27.31419815 -2.06798523 27.29865387 -2.88705444 27.28263855 C-4.8359375 27.12442017 -4.8359375 27.12442017 -6.8359375 26.12442017 C-6.86480501 21.9786013 -6.88269077 17.832808 -6.8984375 13.68692017 C-6.90681641 12.50291626 -6.91519531 11.31891235 -6.92382812 10.09902954 C-6.92705078 8.97432251 -6.93027344 7.84961548 -6.93359375 6.69082642 C-6.93883057 5.64869995 -6.94406738 4.60657349 -6.94946289 3.53286743 C-6.72945995 -1.1345068 -4.0267377 0.00729641 0 0 Z " fill="#00AEEF" transform="translate(10.8359375,10.875579833984375)"/>
<path d="M0 0 C2.24609375 0.0703125 2.24609375 0.0703125 5 1 C6.5964405 3.29813892 7.8209285 5.39449489 9.0625 7.875 C9.8454676 9.3528097 10.63345115 10.82797006 11.42578125 12.30078125 C11.84166504 13.07502441 12.25754883 13.84926758 12.68603516 14.64697266 C14.87134084 18.56038331 17.31538786 22.30103816 19.75 26.0625 C24.97998864 34.19747507 29.78673948 42.5302631 34.45996094 50.99633789 C36.83124387 55.27001241 39.24010119 59.44337098 41.9921875 63.484375 C45.41607569 68.51477964 48.31562468 73.79897501 51.25 79.125 C55.49982903 86.77555056 59.87143727 94.22013121 65.01660156 101.30712891 C67.76941763 105.20132813 68.15800762 106.94804573 69 112 C58.44 112 47.88 112 37 112 C35.02 108.04 33.04 104.08 31 100 C28.76934482 96.56372382 28.76934482 96.56372382 26.47314453 93.17138672 C23.92842425 89.42051795 21.69434398 85.49097655 19.4375 81.5625 C18.95716309 80.73065186 18.47682617 79.89880371 17.98193359 79.04174805 C15.16619975 74.13318712 12.51371669 69.18588108 10.05078125 64.08984375 C8.29845784 60.60473957 6.43491424 57.05859403 4 54 C3.34 54 2.68 54 2 54 C1.65855957 54.63276855 1.31711914 55.26553711 0.96533203 55.91748047 C-9.18177825 74.71258022 -19.51250756 93.39315857 -30 112 C-40.23 112 -50.46 112 -61 112 C-60.13909466 107.69547329 -59.41671265 105.58523083 -57.3046875 101.9375 C-56.7571582 100.98230469 -56.20962891 100.02710937 -55.64550781 99.04296875 C-55.06124023 98.03878906 -54.47697266 97.03460938 -53.875 96 C-52.67865588 93.9172589 -51.48333472 91.83392985 -50.2890625 89.75 C-49.71575195 88.75226563 -49.14244141 87.75453125 -48.55175781 86.7265625 C-46.72315092 83.51355404 -44.97480183 80.26976651 -43.25 77 C-40.43159797 71.69888651 -37.37412792 66.57180671 -34.26464844 61.43896484 C-30.19123911 54.69922909 -26.46601958 47.79721114 -22.80859375 40.82421875 C-22.41736328 40.08026855 -22.02613281 39.33631836 -21.62304688 38.56982422 C-20.85681633 37.11089348 -20.09358269 35.65038308 -19.33398438 34.18798828 C-17.12115777 29.96792533 -14.73528953 25.92107523 -12.18041992 21.8996582 C-10.46951455 19.14628598 -8.95252723 16.30234267 -7.4375 13.4375 C-5.02812734 8.91335047 -2.5761567 4.43098953 0 0 Z " fill="#00AEEF" transform="translate(173,10)"/>
<path d="M0 0 C0.84575089 0.00202423 1.69150177 0.00404846 2.56288147 0.00613403 C3.89205345 0.00350555 3.89205345 0.00350555 5.24807739 0.00082397 C8.19222442 -0.00359583 11.13631191 -0.0006561 14.08045959 0.00271606 C16.11687736 0.00204306 18.15329504 0.00107307 20.18971252 -0.00018311 C24.46368675 -0.00166025 28.73764013 0.00049502 33.01161194 0.00515747 C38.50329498 0.01085477 43.99492916 0.00757585 49.48661041 0.00158501 C53.69348014 -0.00202015 57.90033818 -0.00088223 62.10720825 0.0017128 C64.13271083 0.00238219 66.15821446 0.00155321 68.18371582 -0.00076675 C71.00935189 -0.00329254 73.83490766 0.00054626 76.66053772 0.00613403 C77.5062886 0.0041098 78.35203949 0.00208557 79.22341919 0 C84.99744719 0.02126616 84.99744719 0.02126616 86.11170959 1.13552856 C86.21103113 2.83111582 86.24250966 4.53078604 86.24452209 6.22927856 C86.24581116 7.2592395 86.24710022 8.28920044 86.24842834 9.35037231 C86.24456116 10.43447388 86.24069397 11.51857544 86.23670959 12.63552856 C86.24057678 13.71963013 86.24444397 14.80373169 86.24842834 15.92068481 C86.24713928 16.95064575 86.24585022 17.98060669 86.24452209 19.04177856 C86.24339417 19.99375122 86.24226624 20.94572388 86.24110413 21.92654419 C86.11170959 24.13552856 86.11170959 24.13552856 85.11170959 25.13552856 C82.7360244 25.22392527 80.38962286 25.25083162 78.01405334 25.23318481 C76.95076561 25.23106239 76.95076561 25.23106239 75.86599731 25.22889709 C73.59369247 25.22328299 71.32148484 25.21072819 69.04920959 25.19802856 C67.51210164 25.19301538 65.97499214 25.18845216 64.43788147 25.18435669 C60.66245318 25.17330899 56.88709789 25.15603498 53.11170959 25.13552856 C53.11393021 26.19819443 53.11615082 27.26086029 53.11843872 28.35572815 C53.13866962 38.34767747 53.15368148 48.33962267 53.16352177 58.33158779 C53.16875073 63.46912423 53.17584861 68.60664419 53.18714905 73.74417114 C53.19797747 78.69784267 53.20398633 83.6514983 53.20658684 88.60518074 C53.20844117 90.49950473 53.21206193 92.3938278 53.21743965 94.28814507 C53.22464949 96.93187242 53.22570056 99.57553327 53.22523499 102.2192688 C53.22883026 103.0104863 53.23242554 103.8017038 53.23612976 104.61689758 C53.22576176 110.0214764 53.22576176 110.0214764 52.11170959 111.13552856 C47.97275402 111.41613572 43.82154736 111.36732851 39.67420959 111.38552856 C37.91753967 111.41646606 37.91753967 111.41646606 36.12538147 111.44802856 C35.00840881 111.45318481 33.89143616 111.45834106 32.74061584 111.46365356 C31.71009094 111.47299927 30.67956604 111.48234497 29.61781311 111.49197388 C28.79079895 111.37434692 27.96378479 111.25671997 27.11170959 111.13552856 C24.63066008 107.41395429 24.84372206 104.57147221 24.88465881 100.26760864 C24.88436676 99.46737778 24.88407471 98.66714691 24.8837738 97.84266663 C24.88516754 95.19668752 24.90073075 92.55098975 24.91639709 89.90505981 C24.92012707 88.07088881 24.92297411 86.23671582 24.92497253 84.40254211 C24.93261021 79.57412214 24.95225988 74.74582241 24.97438049 69.91744995 C24.99483601 64.99081041 25.00397362 60.06415145 25.01405334 55.13748169 C25.03550564 45.47010264 25.0706889 35.80284441 25.11170959 26.13552856 C14.55170959 25.80552856 3.99170959 25.47552856 -6.88829041 25.13552856 C-6.90891541 21.19615356 -6.92954041 17.25677856 -6.95079041 13.19802856 C-6.96444641 11.33223145 -6.96444641 11.33223145 -6.9783783 9.42874146 C-6.98212463 7.97069092 -6.98212463 7.97069092 -6.98594666 6.48318481 C-6.99118347 5.48295288 -6.99642029 4.48272095 -7.0018158 3.45217896 C-6.77640082 -1.14774087 -3.93490602 0.01449254 0 0 Z " fill="#00AEEF" transform="translate(364.88829040527344,11.864471435546875)"/>
<path d="M0 0 C1.16208984 -0.00128906 2.32417969 -0.00257812 3.52148438 -0.00390625 C4.74029297 -0.00003906 5.95910156 0.00382813 7.21484375 0.0078125 C8.43751953 0.00394531 9.66019531 0.00007812 10.91992188 -0.00390625 C12.08072266 -0.00261719 13.24152344 -0.00132813 14.4375 0 C15.5087915 0.00112793 16.58008301 0.00225586 17.68383789 0.00341797 C20.15234375 0.1328125 20.15234375 0.1328125 21.15234375 1.1328125 C21.24788774 2.56227721 21.27422813 3.99643915 21.27259827 5.42909241 C21.27397293 6.35602402 21.2753476 7.28295563 21.27676392 8.23797607 C21.27316864 9.26296204 21.26957336 10.287948 21.26586914 11.34399414 C21.26601517 12.41703293 21.26616119 13.49007172 21.26631165 14.59562683 C21.26561199 18.16142766 21.25781713 21.72717699 21.25 25.29296875 C21.24813601 27.75776643 21.24671202 30.22256449 21.24571228 32.68736267 C21.24188562 39.18935155 21.23205407 45.69131825 21.2210083 52.19329834 C21.21026123 58.82222067 21.20621534 65.45114943 21.20117188 72.08007812 C21.19043194 85.09766574 21.17354472 98.11523794 21.15234375 111.1328125 C16.91855189 113.24970843 11.30394593 112.31774255 6.65234375 112.3203125 C4.90244141 112.33868164 4.90244141 112.33868164 3.1171875 112.35742188 C1.44849609 112.36032227 1.44849609 112.36032227 -0.25390625 112.36328125 C-1.27806641 112.36739014 -2.30222656 112.37149902 -3.35742188 112.37573242 C-5.84765625 112.1328125 -5.84765625 112.1328125 -7.84765625 110.1328125 C-8.09375191 108.18442345 -8.09375191 108.18442345 -8.08816528 105.75424194 C-8.09091461 104.83434982 -8.09366394 103.9144577 -8.09649658 102.96669006 C-8.08930603 101.95465012 -8.08211548 100.94261017 -8.07470703 99.89990234 C-8.07499908 98.8364711 -8.07529114 97.77303986 -8.07559204 96.67738342 C-8.0741946 93.14942366 -8.05861381 89.62167303 -8.04296875 86.09375 C-8.0392401 83.65280269 -8.03639243 81.21185388 -8.03439331 78.77090454 C-8.02674524 72.3363026 -8.00708666 65.90179049 -7.98498535 59.46722412 C-7.96455219 52.90524511 -7.95539701 46.34325163 -7.9453125 39.78125 C-7.92384189 26.8983991 -7.89007451 14.01561057 -7.84765625 1.1328125 C-5.14669548 -0.21766789 -3.02039108 0.00317673 0 0 Z " fill="#00AEEF" transform="translate(473.84765625,10.8671875)"/>
<path d="M0 0 C1.47919922 0.06960937 1.47919922 0.06960937 2.98828125 0.140625 C3.98214844 0.17671875 4.97601563 0.2128125 6 0.25 C7.13888672 0.31960937 7.13888672 0.31960937 8.30078125 0.390625 C8.38204234 3.12039564 8.44139788 5.8477267 8.48828125 8.578125 C8.52598633 9.73151367 8.52598633 9.73151367 8.56445312 10.90820312 C8.62322623 15.47291454 8.55219836 18.85891332 5.30078125 22.390625 C2.8203125 22.87890625 2.8203125 22.87890625 0.11328125 22.703125 C-0.78777344 22.65800781 -1.68882813 22.61289063 -2.6171875 22.56640625 C-3.30425781 22.50839844 -3.99132812 22.45039063 -4.69921875 22.390625 C-4.69921875 21.400625 -4.69921875 20.410625 -4.69921875 19.390625 C-2.38921875 19.390625 -0.07921875 19.390625 2.30078125 19.390625 C2.96078125 18.070625 3.62078125 16.750625 4.30078125 15.390625 C3.20765625 15.4525 2.11453125 15.514375 0.98828125 15.578125 C-2.69921875 15.390625 -2.69921875 15.390625 -4.63671875 14.390625 C-6.32088676 11.2204264 -6.37694678 7.85235346 -5.69921875 4.390625 C-4.1120564 1.34900618 -3.44964275 0.49922471 0 0 Z M-0.69921875 2.390625 C-3.07916243 4.33394832 -3.07916243 4.33394832 -2.94921875 7.890625 C-3.07916243 11.44730168 -3.07916243 11.44730168 -0.69921875 13.390625 C1.87618338 13.22554854 1.87618338 13.22554854 4.30078125 12.390625 C5.68203143 9.62812464 5.49157431 7.44331401 5.30078125 4.390625 C4.64078125 3.730625 3.98078125 3.070625 3.30078125 2.390625 C1.98078125 2.390625 0.66078125 2.390625 -0.69921875 2.390625 Z " fill="#CDCDCD" transform="translate(121.69921875,159.609375)"/>
<path d="M0 0 C11.39017735 -0.4952251 11.39017735 -0.4952251 14.328125 1.890625 C17.37430457 5.73393567 17.52309793 9.21870134 17 14 C15.36312815 17.58552881 14.31027417 18.79315055 11 21 C7.31619572 21.26655603 3.69863419 21.08702669 0 21 C0 14.07 0 7.14 0 0 Z M3 2 C3 7.61 3 13.22 3 19 C9.50276388 18.58467123 9.50276388 18.58467123 12.4375 16.375 C14.61706935 13.06205459 14.48624383 10.88995066 14 7 C13.16666667 4.5 13.16666667 4.5 11 3 C8.36 2.67 5.72 2.34 3 2 Z " fill="#CCCCCC" transform="translate(226,154)"/>
<path d="M0 0 C0.99 0 1.98 0 3 0 C3.33 2.31 3.66 4.62 4 7 C5.6396875 6.87625 5.6396875 6.87625 7.3125 6.75 C11 7 11 7 12.9375 8.625 C14.74309032 12.66102542 14.37040366 15.6893409 13.1875 19.875 C11 22 11 22 0 22 C0 14.74 0 7.48 0 0 Z M5 9 C2.62005632 10.94332332 2.62005632 10.94332332 2.75 14.5 C2.62005632 18.05667668 2.62005632 18.05667668 5 20 C7.93453261 19.63318342 8.86437246 19.13562754 11 17 C10.67673447 13.40320934 10.67673447 13.40320934 10 10 C7.60280568 9.32041397 7.60280568 9.32041397 5 9 Z " fill="#CCCCCC" transform="translate(319,153)"/>
<path d="M0 0 C6.0546875 -0.1953125 6.0546875 -0.1953125 8 0 C10 2 10 2 10.1953125 5.0390625 C10.17210937 6.22242188 10.14890625 7.40578125 10.125 8.625 C10.10695313 9.81351563 10.08890625 11.00203125 10.0703125 12.2265625 C10.04710937 13.14179688 10.02390625 14.05703125 10 15 C6.37 15 2.74 15 -1 15 C-1.33 12.69 -1.66 10.38 -2 8 C1.4352048 5.70986347 2.985331 5.82157027 7 6 C6.67 5.01 6.34 4.02 6 3 C3.69 3.33 1.38 3.66 -1 4 C-0.67 2.68 -0.34 1.36 0 0 Z M1 9 C1.33 10.32 1.66 11.64 2 13 C3.32 12.67 4.64 12.34 6 12 C6.33 10.68 6.66 9.36 7 8 C3.94729537 7.84188612 3.94729537 7.84188612 1 9 Z " fill="#CDCDCD" transform="translate(409,160)"/>
<path d="M0 0 C6.0546875 -0.1953125 6.0546875 -0.1953125 8 0 C10 2 10 2 10.1953125 5.0390625 C10.17210937 6.22242188 10.14890625 7.40578125 10.125 8.625 C10.10695313 9.81351563 10.08890625 11.00203125 10.0703125 12.2265625 C10.04710937 13.14179688 10.02390625 14.05703125 10 15 C6.37 15 2.74 15 -1 15 C-1.33 12.69 -1.66 10.38 -2 8 C1.4352048 5.70986347 2.985331 5.82157027 7 6 C6.67 5.01 6.34 4.02 6 3 C3.69 3.33 1.38 3.66 -1 4 C-0.67 2.68 -0.34 1.36 0 0 Z M1 9 C1.33 10.32 1.66 11.64 2 13 C3.32 12.67 4.64 12.34 6 12 C6.33 10.68 6.66 9.36 7 8 C3.94729537 7.84188612 3.94729537 7.84188612 1 9 Z " fill="#CDCDCD" transform="translate(287,160)"/>
<path d="M0 0 C0.99 0 1.98 0 3 0 C3.33 2.31 3.66 4.62 4 7 C6.31 7 8.62 7 11 7 C12.44207941 9.88415883 12.09394887 12.41721528 12.0625 15.625 C12.05347656 16.81351563 12.04445312 18.00203125 12.03515625 19.2265625 C12.02355469 20.14179688 12.01195312 21.05703125 12 22 C11.34 22 10.68 22 10 22 C9.93941406 21.30132812 9.87882813 20.60265625 9.81640625 19.8828125 C9.73261719 18.97273438 9.64882812 18.06265625 9.5625 17.125 C9.48128906 16.22007812 9.40007812 15.31515625 9.31640625 14.3828125 C9.13010715 11.98889139 9.13010715 11.98889139 8 10 C6.68 10.33 5.36 10.66 4 11 C3.67 14.63 3.34 18.26 3 22 C2.01 22 1.02 22 0 22 C0 14.74 0 7.48 0 0 Z " fill="#CBCBCB" transform="translate(138,153)"/>
<path d="M0 0 C2.1015625 0.44140625 2.1015625 0.44140625 4.2265625 2.44140625 C5.44573086 6.62141206 5.07870367 9.18386259 4.1015625 13.44140625 C0.31972344 15.96263229 -2.45698955 16.17239456 -6.8984375 15.44140625 C-8.8984375 13.87890625 -8.8984375 13.87890625 -9.8984375 11.44140625 C-10.279971 7.88042693 -10.24955769 5.35431873 -8.9609375 2.00390625 C-6.03544334 -0.21237721 -3.60360625 -0.18194103 0 0 Z M-6.8984375 4.44140625 C-7.3984375 7.94140625 -7.3984375 7.94140625 -6.8984375 11.44140625 C-4.11729694 13.77531828 -4.11729694 13.77531828 -1.2109375 13.06640625 C-0.4478125 12.86015625 0.3153125 12.65390625 1.1015625 12.44140625 C2.3081495 7.79023207 2.3081495 7.79023207 0.8515625 3.50390625 C-2.42873742 1.51229558 -3.82088488 2.38970451 -6.8984375 4.44140625 Z " fill="#CCCCCC" transform="translate(458.8984375,159.55859375)"/>
<path d="M0 0 C2.1015625 0.44140625 2.1015625 0.44140625 4.2265625 2.44140625 C5.44573086 6.62141206 5.07870367 9.18386259 4.1015625 13.44140625 C0.31972344 15.96263229 -2.45698955 16.17239456 -6.8984375 15.44140625 C-8.8984375 13.87890625 -8.8984375 13.87890625 -9.8984375 11.44140625 C-10.279971 7.88042693 -10.24955769 5.35431873 -8.9609375 2.00390625 C-6.03544334 -0.21237721 -3.60360625 -0.18194103 0 0 Z M-6.8984375 4.44140625 C-7.3984375 7.94140625 -7.3984375 7.94140625 -6.8984375 11.44140625 C-4.11729694 13.77531828 -4.11729694 13.77531828 -1.2109375 13.06640625 C-0.4478125 12.86015625 0.3153125 12.65390625 1.1015625 12.44140625 C2.3081495 7.79023207 2.3081495 7.79023207 0.8515625 3.50390625 C-2.42873742 1.51229558 -3.82088488 2.38970451 -6.8984375 4.44140625 Z " fill="#CCCCCC" transform="translate(348.8984375,159.55859375)"/>
<path d="M0 0 C2.1015625 0.44140625 2.1015625 0.44140625 4.2265625 2.44140625 C5.44573086 6.62141206 5.07870367 9.18386259 4.1015625 13.44140625 C0.31972344 15.96263229 -2.45698955 16.17239456 -6.8984375 15.44140625 C-8.8984375 13.87890625 -8.8984375 13.87890625 -9.8984375 11.44140625 C-10.279971 7.88042693 -10.24955769 5.35431873 -8.9609375 2.00390625 C-6.03544334 -0.21237721 -3.60360625 -0.18194103 0 0 Z M-6.8984375 4.44140625 C-7.3984375 7.94140625 -7.3984375 7.94140625 -6.8984375 11.44140625 C-4.11729694 13.77531828 -4.11729694 13.77531828 -1.2109375 13.06640625 C-0.4478125 12.86015625 0.3153125 12.65390625 1.1015625 12.44140625 C2.3081495 7.79023207 2.3081495 7.79023207 0.8515625 3.50390625 C-2.42873742 1.51229558 -3.82088488 2.38970451 -6.8984375 4.44140625 Z " fill="#CCCCCC" transform="translate(45.8984375,159.55859375)"/>
<path d="M0 0 C2 3 2 3 2 8 C-1.3 8 -4.6 8 -8 8 C-7.34 9.32 -6.68 10.64 -6 12 C-2.535 11.505 -2.535 11.505 1 11 C0.67 12.32 0.34 13.64 0 15 C-7.28358209 15.35820896 -7.28358209 15.35820896 -10 14 C-11.62824168 10.74351663 -11.49521025 7.51599278 -11 4 C-8.8803264 -1.29918399 -5.02423229 -0.55824803 0 0 Z M-6 2 C-6.66 3.32 -7.32 4.64 -8 6 C-5.69 6 -3.38 6 -1 6 C-1.66 4.68 -2.32 3.36 -3 2 C-3.99 2 -4.98 2 -6 2 Z " fill="#CBCBCB" transform="translate(260,160)"/>
<path d="M0 0 C2 3 2 3 2 8 C-1.3 8 -4.6 8 -8 8 C-7.34 9.32 -6.68 10.64 -6 12 C-2.535 11.505 -2.535 11.505 1 11 C0.67 12.32 0.34 13.64 0 15 C-7.28358209 15.35820896 -7.28358209 15.35820896 -10 14 C-11.62824168 10.74351663 -11.49521025 7.51599278 -11 4 C-8.8803264 -1.29918399 -5.02423229 -0.55824803 0 0 Z M-6 2 C-6.66 3.32 -7.32 4.64 -8 6 C-5.69 6 -3.38 6 -1 6 C-1.66 4.68 -2.32 3.36 -3 2 C-3.99 2 -4.98 2 -6 2 Z " fill="#CBCBCB" transform="translate(82,160)"/>
<path d="M0 0 C3.63 0 7.26 0 11 0 C12.44207941 2.88415883 12.09394887 5.41721528 12.0625 8.625 C12.05347656 9.81351563 12.04445313 11.00203125 12.03515625 12.2265625 C12.02355469 13.14179688 12.01195312 14.05703125 12 15 C11.34 15 10.68 15 10 15 C9.93941406 14.30132812 9.87882812 13.60265625 9.81640625 12.8828125 C9.73261719 11.97273437 9.64882813 11.06265625 9.5625 10.125 C9.48128906 9.22007812 9.40007812 8.31515625 9.31640625 7.3828125 C9.13010715 4.98889139 9.13010715 4.98889139 8 3 C6.68 3.33 5.36 3.66 4 4 C3.67 7.63 3.34 11.26 3 15 C2.01 15 1.02 15 0 15 C0 10.05 0 5.1 0 0 Z " fill="#CCCCCC" transform="translate(471,160)"/>
<path d="M0 0 C3.63 0 7.26 0 11 0 C12.44207941 2.88415883 12.09394887 5.41721528 12.0625 8.625 C12.05347656 9.81351563 12.04445313 11.00203125 12.03515625 12.2265625 C12.02355469 13.14179688 12.01195312 14.05703125 12 15 C11.34 15 10.68 15 10 15 C9.93941406 14.30132812 9.87882812 13.60265625 9.81640625 12.8828125 C9.73261719 11.97273437 9.64882813 11.06265625 9.5625 10.125 C9.48128906 9.22007812 9.40007812 8.31515625 9.31640625 7.3828125 C9.13010715 4.98889139 9.13010715 4.98889139 8 3 C6.68 3.33 5.36 3.66 4 4 C3.67 7.63 3.34 11.26 3 15 C2.01 15 1.02 15 0 15 C0 10.05 0 5.1 0 0 Z " fill="#CCCCCC" transform="translate(361,160)"/>
<path d="M0 0 C0.66 0 1.32 0 2 0 C2.06058594 0.69867188 2.12117187 1.39734375 2.18359375 2.1171875 C2.26738281 3.02726563 2.35117188 3.93734375 2.4375 4.875 C2.55931641 6.23238281 2.55931641 6.23238281 2.68359375 7.6171875 C2.86989285 10.01110861 2.86989285 10.01110861 4 12 C5.32 11.67 6.64 11.34 8 11 C8.33 7.37 8.66 3.74 9 0 C9.99 0 10.98 0 12 0 C12 4.95 12 9.9 12 15 C10.39125 15.04125 8.7825 15.0825 7.125 15.125 C6.22007812 15.14820313 5.31515625 15.17140625 4.3828125 15.1953125 C2 15 2 15 0 13 C-0.1953125 9.9609375 -0.1953125 9.9609375 -0.125 6.375 C-0.10695312 5.18648437 -0.08890625 3.99796875 -0.0703125 2.7734375 C-0.04710937 1.85820312 -0.02390625 0.94296875 0 0 Z " fill="#CCCCCC" transform="translate(184,160)"/>
<path d="M0 0 C3.63 0 7.26 0 11 0 C11 0.66 11 1.32 11 2 C8.36 2 5.72 2 3 2 C3 4.64 3 7.28 3 10 C5.31 10 7.62 10 10 10 C10 10.66 10 11.32 10 12 C7.69 12 5.38 12 3 12 C3 14.97 3 17.94 3 21 C2.01 21 1.02 21 0 21 C0 14.07 0 7.14 0 0 Z " fill="#CCCCCC" transform="translate(19,154)"/>
<path d="M0 0 C3.96 0 7.92 0 12 0 C10.05372161 4.86569598 8.07915761 7.86744637 5 12 C7.31 12.33 9.62 12.66 12 13 C12 13.66 12 14.32 12 15 C7.71 15 3.42 15 -1 15 C0.56998315 11.86003369 2.17021411 9.13968349 4.125 6.25 C4.66382813 5.45078125 5.20265625 4.6515625 5.7578125 3.828125 C6.37269531 2.92320312 6.37269531 2.92320312 7 2 C4.69 2 2.38 2 0 2 C0 1.34 0 0.68 0 0 Z " fill="#CECECE" transform="translate(390,160)"/>
<path d="M0 0 C1.134375 0.020625 2.26875 0.04125 3.4375 0.0625 C3.4375 1.0525 3.4375 2.0425 3.4375 3.0625 C1.7875 3.0625 0.1375 3.0625 -1.5625 3.0625 C-1.5625 3.7225 -1.5625 4.3825 -1.5625 5.0625 C0.39897874 6.45188077 2.39916576 7.7885411 4.4375 9.0625 C3.5625 13.9375 3.5625 13.9375 2.4375 15.0625 C-0.23308851 15.20365161 -2.88682238 15.10497107 -5.5625 15.0625 C-5.5625 14.0725 -5.5625 13.0825 -5.5625 12.0625 C-3.5825 12.0625 -1.6025 12.0625 0.4375 12.0625 C0.4375 11.4025 0.4375 10.7425 0.4375 10.0625 C-1.52397874 8.67311923 -3.52416576 7.3364589 -5.5625 6.0625 C-4.48849278 0.07874549 -4.48849278 0.07874549 0 0 Z " fill="#CCCCCC" transform="translate(95.5625,159.9375)"/>
<path d="M0 0 C0 0.99 0 1.98 0 3 C-2.64 3 -5.28 3 -8 3 C-8 5.64 -8 8.28 -8 11 C-5.69 11.33 -3.38 11.66 -1 12 C-1 12.99 -1 13.98 -1 15 C-8.38052027 15.48396854 -8.38052027 15.48396854 -11 13.4375 C-12.38885542 10.05216491 -12.45310904 7.62487235 -12 4 C-8.92690336 -0.99378204 -5.33129622 -0.35541975 0 0 Z " fill="#CECECE" transform="translate(280,160)"/>
<path d="M0 0 C1.4540625 0.0309375 1.4540625 0.0309375 2.9375 0.0625 C2.9375 0.7225 2.9375 1.3825 2.9375 2.0625 C1.9475 2.3925 0.9575 2.7225 -0.0625 3.0625 C-1.27132096 5.06266466 -1.27132096 5.06266466 -2.0625 7.0625 C-0.7425 7.0625 0.5775 7.0625 1.9375 7.0625 C1.9375 7.7225 1.9375 8.3825 1.9375 9.0625 C0.6175 9.0625 -0.7025 9.0625 -2.0625 9.0625 C-2.0625 13.3525 -2.0625 17.6425 -2.0625 22.0625 C-2.7225 22.0625 -3.3825 22.0625 -4.0625 22.0625 C-4.0625 17.7725 -4.0625 13.4825 -4.0625 9.0625 C-5.0525 9.0625 -6.0425 9.0625 -7.0625 9.0625 C-7.0625 8.4025 -7.0625 7.7425 -7.0625 7.0625 C-6.0725 7.0625 -5.0825 7.0625 -4.0625 7.0625 C-4.083125 6.093125 -4.10375 5.12375 -4.125 4.125 C-4.0425 0.0825 -4.0425 0.0825 0 0 Z " fill="#CCCCCC" transform="translate(176.0625,152.9375)"/>
<path d="M0 0 C0.99 0 1.98 0 3 0 C3 7.26 3 14.52 3 22 C2.01 22 1.02 22 0 22 C0 14.74 0 7.48 0 0 Z " fill="#CBCBCB" transform="translate(204,153)"/>
<path d="M0 0 C0.66 0 1.32 0 2 0 C2 1.32 2 2.64 2 4 C3.32 4 4.64 4 6 4 C6 4.66 6 5.32 6 6 C4.68 6 3.36 6 2 6 C2.33 9.3 2.66 12.6 3 16 C3.99 16 4.98 16 6 16 C6 16.99 6 17.98 6 19 C4.33388095 19.042721 2.66617115 19.04063832 1 19 C0 18 0 18 -0.09765625 15.27734375 C-0.08605469 14.17519531 -0.07445312 13.07304687 -0.0625 11.9375 C-0.05347656 10.83277344 -0.04445313 9.72804687 -0.03515625 8.58984375 C-0.02355469 7.73519531 -0.01195312 6.88054687 0 6 C-0.99 6 -1.98 6 -3 6 C-3 5.34 -3 4.68 -3 4 C-2.01 4 -1.02 4 0 4 C0 2.68 0 1.36 0 0 Z " fill="#CCCCCC" transform="translate(428,156)"/>
<path d="M0 0 C0.66 0 1.32 0 2 0 C2 1.32 2 2.64 2 4 C3.32 4 4.64 4 6 4 C6 4.66 6 5.32 6 6 C4.68 6 3.36 6 2 6 C2.33 9.3 2.66 12.6 3 16 C3.99 16 4.98 16 6 16 C6 16.99 6 17.98 6 19 C4.33388095 19.042721 2.66617115 19.04063832 1 19 C0 18 0 18 -0.09765625 15.27734375 C-0.08605469 14.17519531 -0.07445312 13.07304687 -0.0625 11.9375 C-0.05347656 10.83277344 -0.04445312 9.72804687 -0.03515625 8.58984375 C-0.02355469 7.73519531 -0.01195312 6.88054687 0 6 C-0.99 6 -1.98 6 -3 6 C-3 5.34 -3 4.68 -3 4 C-2.01 4 -1.02 4 0 4 C0 2.68 0 1.36 0 0 Z " fill="#CCCCCC" transform="translate(159,156)"/>
<path d="M0 0 C2.64 0 5.28 0 8 0 C7.67 0.99 7.34 1.98 7 3 C6.01 3.33 5.02 3.66 4 4 C3.67 7.63 3.34 11.26 3 15 C2.01 15 1.02 15 0 15 C0 10.05 0 5.1 0 0 Z " fill="#CBCBCB" transform="translate(305,160)"/>
<path d="M0 0 C2.64 0 5.28 0 8 0 C7.67 0.99 7.34 1.98 7 3 C6.01 3.33 5.02 3.66 4 4 C3.67 7.63 3.34 11.26 3 15 C2.01 15 1.02 15 0 15 C0 10.05 0 5.1 0 0 Z " fill="#CBCBCB" transform="translate(58,160)"/>
<path d="M0 0 C0.99 0 1.98 0 3 0 C3 4.95 3 9.9 3 15 C2.01 15 1.02 15 0 15 C0 10.05 0 5.1 0 0 Z " fill="#CBCBCB" transform="translate(440,160)"/>
<path d="M0 0 C0.99 0 1.98 0 3 0 C3 4.95 3 9.9 3 15 C2.01 15 1.02 15 0 15 C0 10.05 0 5.1 0 0 Z " fill="#CBCBCB" transform="translate(381,160)"/>
<path d="M0 0 C0.99 0 1.98 0 3 0 C3 4.95 3 9.9 3 15 C2.01 15 1.02 15 0 15 C0 10.05 0 5.1 0 0 Z " fill="#CBCBCB" transform="translate(107,160)"/>
<path d="M0 0 C0.99 0 1.98 0 3 0 C3 0.99 3 1.98 3 3 C1.68 2.67 0.36 2.34 -1 2 C-0.67 1.34 -0.34 0.68 0 0 Z " fill="#CBCBCB" transform="translate(440,154)"/>
<path d="M0 0 C0.99 0 1.98 0 3 0 C3 0.99 3 1.98 3 3 C1.68 2.67 0.36 2.34 -1 2 C-0.67 1.34 -0.34 0.68 0 0 Z " fill="#CBCBCB" transform="translate(381,154)"/>
<path d="M0 0 C0.99 0 1.98 0 3 0 C3 0.99 3 1.98 3 3 C1.68 2.67 0.36 2.34 -1 2 C-0.67 1.34 -0.34 0.68 0 0 Z " fill="#CBCBCB" transform="translate(107,154)"/>
</svg>
